<svg height="512pt" viewBox="-21 0 512 512" width="512pt" xmlns="http://www.w3.org/2000/svg"><path d="m234.667969 0c-129.386719 0-234.667969 105.28125-234.667969 234.667969 0 128.253906 102.507812 277.332031 234.667969 277.332031 132.160156 0 234.664062-149.078125 234.664062-277.332031 0-129.386719-105.277343-234.667969-234.664062-234.667969zm0 0" fill="#4caf50"/><path d="m117.332031 170.667969c-6.738281 0-13.757812 1.128906-21.4375 3.453125-3.414062 1.046875-6.082031 3.714844-7.105469 7.125-2.324218 7.683594-3.457031 14.699218-3.457031 21.421875 0 41.171875 33.496094 74.664062 74.667969 74.664062 6.71875 0 13.738281-1.128906 21.417969-3.453125 3.433593-1.046875 6.101562-3.714844 7.125-7.125 2.328125-7.683594 3.457031-14.699218 3.457031-21.421875 0-41.171875-33.492188-74.664062-74.667969-74.664062zm0 0" fill="#fafafa"/><path d="m380.542969 181.246094c-1.023438-3.410156-3.691407-6.078125-7.125-7.125-7.679688-2.324219-14.699219-3.453125-21.417969-3.453125-41.171875 0-74.667969 33.492187-74.667969 74.664062 0 6.722657 1.132813 13.738281 3.457031 21.421875 1.023438 3.410156 3.691407 6.078125 7.105469 7.125 7.679688 2.324219 14.699219 3.453125 21.4375 3.453125 41.175781 0 74.667969-33.492187 74.667969-74.664062 0-6.722657-1.128906-13.738281-3.457031-21.421875zm0 0" fill="#fafafa"/><path d="m234.667969 512c-132.160157 0-234.667969-149.078125-234.667969-277.332031 0-129.386719 105.28125-234.667969 234.667969-234.667969s234.664062 105.28125 234.664062 234.667969c0 128.253906-102.503906 277.332031-234.664062 277.332031zm0-490.667969c-117.632813 0-213.335938 95.703125-213.335938 213.335938 0 115.964843 95.167969 256 213.335938 256 118.164062 0 213.332031-140.035157 213.332031-256 0-117.632813-95.703125-213.335938-213.332031-213.335938zm0 0"/><path d="m234.070312 426.667969c-51.074218 0-98.070312-25.773438-125.71875-68.90625-3.179687-4.949219-1.726562-11.5625 3.222657-14.722657 4.882812-3.199218 11.519531-1.769531 14.71875 3.222657 23.703125 36.992187 64 59.09375 107.753906 59.09375 43.734375 0 84.011719-22.082031 107.753906-59.09375 3.179688-4.972657 9.835938-6.421875 14.722657-3.222657 4.949218 3.179688 6.421874 9.773438 3.21875 14.722657-27.644532 43.15625-74.644532 68.90625-125.671876 68.90625zm0 0"/><path d="m160 277.332031c-41.171875 0-74.667969-33.492187-74.667969-74.664062 0-6.742188 1.132813-13.78125 3.457031-21.441407 1.046876-3.390624 3.710938-6.058593 7.105469-7.105468 7.65625-2.324219 14.699219-3.453125 21.4375-3.453125 41.175781 0 74.667969 33.492187 74.667969 74.664062 0 6.742188-1.128906 13.78125-3.457031 21.441407-1.042969 3.390624-3.710938 6.058593-7.101563 7.105468-7.660156 2.324219-14.699218 3.453125-21.441406 3.453125zm18.324219-13.671875h.214843zm-70.589844-70.59375c-.703125 3.390625-1.066406 6.527344-1.066406 9.601563 0 29.417969 23.914062 53.332031 53.332031 53.332031 3.070312 0 6.207031-.363281 9.601562-1.066406.703126-3.390625 1.066407-6.527344 1.066407-9.601563 0-29.417969-23.914063-53.332031-53.335938-53.332031-3.070312 0-6.207031.363281-9.597656 1.066406zm0 0"/><path d="m309.332031 277.332031c-6.738281 0-13.78125-1.128906-21.4375-3.453125-3.394531-1.046875-6.058593-3.714844-7.105469-7.105468-2.324218-7.660157-3.457031-14.699219-3.457031-21.441407 0-41.171875 33.496094-74.664062 74.667969-74.664062 6.742188 0 13.78125 1.128906 21.441406 3.453125 3.390625 1.046875 6.058594 3.714844 7.101563 7.105468 2.328125 7.660157 3.457031 14.699219 3.457031 21.441407 0 41.171875-33.492188 74.664062-74.667969 74.664062zm-9.597656-22.398437c3.390625.703125 6.527344 1.066406 9.597656 1.066406 29.421875 0 53.335938-23.914062 53.335938-53.332031 0-3.074219-.363281-6.210938-1.066407-9.601563-3.394531-.703125-6.53125-1.066406-9.601562-1.066406-29.417969 0-53.332031 23.914062-53.332031 53.332031 0 3.074219.363281 6.210938 1.066406 9.601563zm0 0"/></svg>