<svg height="512pt" viewBox="0 0 512 512" width="512pt" xmlns="http://www.w3.org/2000/svg"><path d="m512 256c0 141.386719-114.613281 256-256 256s-256-114.613281-256-256 114.613281-256 256-256 256 114.613281 256 256zm0 0" fill="#ffc107"/><path d="m192 224c0 17.671875-14.328125 32-32 32s-32-14.328125-32-32 14.328125-32 32-32 32 14.328125 32 32zm0 0" fill="#795548"/><path d="m384 224c0 17.671875-14.328125 32-32 32s-32-14.328125-32-32 14.328125-32 32-32 32 14.328125 32 32zm0 0" fill="#795548"/><path d="m256 512c-141.164062 0-256-114.835938-256-256s114.835938-256 256-256 256 114.835938 256 256-114.835938 256-256 256zm0-490.667969c-129.386719 0-234.667969 105.28125-234.667969 234.667969s105.28125 234.667969 234.667969 234.667969 234.667969-105.28125 234.667969-234.667969-105.28125-234.667969-234.667969-234.667969zm0 0"/><path d="m160 256c-17.644531 0-32-14.355469-32-32s14.355469-32 32-32 32 14.355469 32 32-14.355469 32-32 32zm0-42.667969c-5.886719 0-10.667969 4.78125-10.667969 10.667969s4.78125 10.667969 10.667969 10.667969 10.667969-4.78125 10.667969-10.667969-4.78125-10.667969-10.667969-10.667969zm0 0"/><path d="m352 256c-17.644531 0-32-14.355469-32-32s14.355469-32 32-32 32 14.355469 32 32-14.355469 32-32 32zm0-42.667969c-5.886719 0-10.667969 4.78125-10.667969 10.667969s4.78125 10.667969 10.667969 10.667969 10.667969-4.78125 10.667969-10.667969-4.78125-10.667969-10.667969-10.667969zm0 0"/><path d="m256 405.332031c-51.050781 0-98.046875-25.769531-125.695312-68.90625-3.179688-4.96875-1.75-11.5625 3.21875-14.742187 4.953124-3.199219 11.566406-1.769532 14.742187 3.222656 23.722656 36.992188 63.980469 59.09375 107.734375 59.09375s84.011719-22.101562 107.734375-59.09375c3.15625-4.96875 9.769531-6.421875 14.742187-3.222656 4.949219 3.179687 6.398438 9.773437 3.21875 14.742187-27.648437 43.136719-74.644531 68.90625-125.695312 68.90625zm0 0"/><path d="m256 149.332031c-116.609375 0-234.667969-25.640625-234.667969-74.664062 0-49.023438 118.058594-74.667969 234.667969-74.667969s234.667969 25.644531 234.667969 74.667969c0 49.023437-118.058594 74.664062-234.667969 74.664062zm0-128c-130.21875 0-213.332031 31.574219-213.332031 53.335938 0 21.757812 83.113281 53.332031 213.332031 53.332031s213.332031-31.574219 213.332031-53.332031c0-21.761719-83.113281-53.335938-213.332031-53.335938zm0 0"/></svg>