<svg height="512pt" viewBox="0 0 512 512" width="512pt" xmlns="http://www.w3.org/2000/svg"><path d="m368 0c-38.71875 0-75.050781 15.445312-101.78125 42.28125 2.6875 1.386719 4.90625 3.414062 6.207031 6.230469 2.390625 5.164062 8.578125 18.625-54.503906 89.171875l66.34375 56.875c2.261719 1.941406 3.605469 4.738281 3.714844 7.679687.105469 2.988281-1.003907 5.847657-3.117188 7.960938l-57.621093 57.597656 48.085937 67.308594c2.433594 3.390625 2.644531 7.871093.574219 11.496093l-40.167969 70.316407 30.226563 80.640625c1.773437 4.714844-.148438 9.726562-4.136719 12.414062.214843-.148437.492187-.085937.683593-.234375 10.21875-7.871093 249.492188-195.371093 249.492188-365.738281 0-79.402344-64.597656-144-144-144zm0 0" fill="#f44336"/><path d="m246.015625 505.089844-32-85.335938c-1.109375-2.984375-.851563-6.292968.726563-9.042968l39.273437-68.738282-49.34375-69.097656c-3.027344-4.246094-2.558594-10.070312 1.128906-13.761719l55.851563-55.847656-65.917969-56.492187c-2.199219-1.878907-3.542969-4.566407-3.714844-7.464844-.167969-2.859375.832031-5.699219 2.773438-7.832032 24.066406-26.367187 50.242187-59.328124 56.386719-72.683593-2.089844-1.875-3.4375-4.585938-3.519532-7.59375-.042968-1.941407.554688-3.667969 1.40625-5.269531-27.007812-29.035157-64.683594-45.929688-105.066406-45.929688-79.402344 0-144 64.597656-144 144 0 170.367188 239.273438 357.867188 249.472656 365.78125.085938.0625.210938.042969.320313.105469-1.644531-1.195313-3.03125-2.773438-3.777344-4.796875zm0 0" fill="#f44336"/><path d="m256 512c-2.304688 0-4.609375-.746094-6.527344-2.238281-10.199218-7.894531-249.472656-195.371094-249.472656-365.761719 0-79.402344 64.597656-144 144-144 43.925781 0 84.757812 19.796875 112 53.632812 27.242188-33.835937 68.074219-53.632812 112-53.632812 79.402344 0 144 64.597656 144 144 0 170.390625-239.273438 357.867188-249.472656 365.761719-1.917969 1.492187-4.222656 2.238281-6.527344 2.238281zm-112-490.667969c-67.625 0-122.667969 55.042969-122.667969 122.667969 0 144.917969 196.054688 312.148438 234.667969 343.660156 38.613281-31.511718 234.667969-198.722656 234.667969-343.660156 0-67.625-55.042969-122.667969-122.667969-122.667969-41.769531 0-80.277344 21.035157-103.039062 56.277344-3.925782 6.082031-13.996094 6.082031-17.921876 0-22.761718-35.242187-61.269531-56.277344-103.039062-56.277344zm0 0"/><path d="m256 512c-4.308594 0-8.382812-2.644531-9.984375-6.910156l-32-85.335938c-1.109375-2.984375-.851563-6.292968.726563-9.042968l39.273437-68.738282-49.34375-69.097656c-3.027344-4.246094-2.558594-10.046875 1.128906-13.738281l55.851563-55.851563-65.917969-56.511718c-2.199219-1.878907-3.542969-4.566407-3.714844-7.445313-.167969-2.878906.832031-5.71875 2.773438-7.851563.363281-.40625 36.84375-40.445312 52.117187-65.257812 3.09375-5.011719 9.644532-6.59375 14.679688-3.5 5.011718 3.09375 6.570312 9.664062 3.5 14.679688-12.097656 19.625-35.328125 46.78125-47.210938 60.246093l66.386719 56.914063c2.261719 1.921875 3.605469 4.714844 3.714844 7.679687.105469 2.96875-1.003907 5.847657-3.117188 7.960938l-57.621093 57.621093 48.085937 67.304688c2.433594 3.390625 2.644531 7.871094.574219 11.5l-40.167969 70.3125 30.226563 80.640625c2.070312 5.527344-.722657 11.667969-6.226563 13.738281-1.21875.46875-2.476563.683594-3.734375.683594zm0 0"/></svg>