<svg height="512pt" viewBox="0 0 512 512" width="512pt" xmlns="http://www.w3.org/2000/svg"><path d="m512 256c0 141.386719-114.613281 256-256 256s-256-114.613281-256-256 114.613281-256 256-256 256 114.613281 256 256zm0 0" fill="#ffc107"/><path d="m256.535156 117.332031-213.867187-10.664062c-17.539063 0-42.667969 25.128906-42.667969 42.664062v21.335938c0 52.925781 43.070312 96 96 96 73.238281 0 133.398438-57.066407 138.324219-129.066407l21.140625 1.066407c5.890625.167969 10.882812-4.246094 11.179687-10.132813.300781-5.890625-4.222656-10.882812-10.109375-11.203125zm0 0" fill="#455a64"/><path d="m468.820312 106.667969-213.332031 10.664062c-5.886719.300781-10.410156 5.3125-10.132812 11.179688.296875 5.886719 5.332031 10.242187 11.179687 10.132812l21.140625-1.066406c4.925781 72 65.085938 129.066406 138.324219 129.066406 52.929688 0 96-43.070312 96-96v-21.3125c0-17.535156-25.109375-42.664062-43.179688-42.664062zm0 0" fill="#455a64"/><path d="m256 405.332031c-51.070312 0-98.070312-25.769531-125.71875-68.90625-3.175781-4.949219-1.726562-11.5625 3.222656-14.71875 4.886719-3.179687 11.519532-1.769531 14.71875 3.222657 23.746094 36.992187 64.023438 59.070312 107.777344 59.070312s84.03125-22.078125 107.753906-59.09375c3.179688-4.96875 9.835938-6.398438 14.722656-3.222656 4.949219 3.160156 6.417969 9.773437 3.21875 14.722656-27.625 43.15625-74.625 68.925781-125.695312 68.925781zm0 0"/><path d="m213.269531 192.425781c-5.886719 0-10.601562-5.203125-10.601562-11.09375 0-17.042969 24.917969-32 53.332031-32s53.332031 14.957031 53.332031 32c0 5.890625-4.777343 10.667969-10.664062 10.667969-5.699219 0-10.328125-4.4375-10.648438-10.046875-1.832031-3.5625-14.292969-11.285156-32.019531-11.285156-18.113281 0-30.71875 8.0625-32.128906 11.519531 0 5.867188-4.714844 10.238281-10.601563 10.238281zm74.859375-10.238281"/><path d="m256.535156 138.644531-203.777344-10.152343c-3.863281-.171876-7.296874-2.433594-9.023437-5.890626-1.707031-3.453124-1.429687-7.570312.746094-10.773437 47.808593-70.015625 126.890625-111.828125 211.519531-111.828125s163.710938 41.8125 211.519531 111.828125c2.175781 3.179687 2.453125 7.320313.746094 10.773437-1.726563 3.457032-5.160156 5.71875-9.023437 5.890626zm-182.765625-30.441406 182.765625 9.152344 181.695313-9.152344c-44.417969-54.71875-111.191407-86.871094-182.230469-86.871094s-137.8125 32.152344-182.230469 86.871094zm0 0"/><path d="m256 512c-141.164062 0-256-114.835938-256-256 0-18.476562 2.15625-37.417969 6.421875-56.296875 1.023437-4.566406 4.886719-7.917969 9.558594-8.257813 5.097656-.296874 9.023437 2.347657 10.75 6.675782 11.371093 28.695312 38.570312 47.210937 69.269531 47.210937 64.683594 0 117.332031-52.648437 117.332031-117.332031 0-5.886719 4.78125-10.667969 10.667969-10.667969h64c5.886719 0 10.667969 4.78125 10.667969 10.667969 0 64.683594 52.648437 117.332031 117.332031 117.332031 30.699219 0 57.898438-18.515625 69.269531-47.210937 1.726563-4.328125 5.652344-7.125 10.75-6.675782 4.671875.363282 8.535157 3.710938 9.558594 8.277344 4.265625 18.859375 6.421875 37.800782 6.421875 56.277344 0 141.164062-114.835938 256-256 256zm-233.40625-279.550781c-.832031 7.914062-1.261719 15.785156-1.261719 23.550781 0 129.386719 105.28125 234.667969 234.667969 234.667969s234.667969-105.28125 234.667969-234.667969c0-7.765625-.429688-15.636719-1.261719-23.550781-17.855469 21.375-44.414062 34.21875-73.40625 34.21875-72.875 0-132.800781-56.492188-138.261719-128h-43.457031c-5.480469 71.507812-65.386719 128-138.261719 128-29.011719 0-55.570312-12.84375-73.425781-34.21875zm0 0"/><path d="m96 266.667969c-52.929688 0-96-43.074219-96-96v-21.335938c0-17.535156 25.128906-42.664062 42.667969-42.664062l213.867187 10.6875c5.863282.296875 10.386719 5.289062 10.109375 11.179687-.277343 5.84375-4.734375 11.007813-11.179687 10.109375l-21.117188-1.042969c-4.949218 72-65.109375 129.066407-138.347656 129.066407zm-53.867188-138.6875c-5.523437.148437-20.671874 15.292969-20.800781 21.351562v21.335938c0 41.171875 33.496094 74.664062 74.667969 74.664062 61.824219 0 112.640625-48.0625 117.011719-108.796875zm0 0"/><path d="m416 266.667969c-73.238281 0-133.398438-57.066407-138.324219-129.066407l-21.121093 1.042969c-6.65625.855469-10.921876-4.246093-11.179688-10.109375-.296875-5.890625 4.226562-10.902344 10.113281-11.179687l213.332031-10.667969h.023438c18.046875 0 43.15625 25.109375 43.15625 42.644531v21.335938c0 52.925781-43.070312 96-96 96zm-117.011719-130.15625c4.371094 60.757812 55.1875 108.820312 117.011719 108.820312 41.171875 0 74.667969-33.492187 74.667969-74.664062v-21.335938c-.128907-6.058593-15.277344-21.203125-21.335938-21.332031zm0 0"/></svg>