<svg height="512pt" viewBox="0 0 512 512" width="512pt" xmlns="http://www.w3.org/2000/svg"><path d="m512 256c0 141.386719-114.613281 256-256 256s-256-114.613281-256-256 114.613281-256 256-256 256 114.613281 256 256zm0 0" fill="#ffc107"/><path d="m169.878906 198.632812c-3.285156-8.019531-16.449218-8.019531-19.757812 0-5.183594 12.695313-22.121094 55.148438-22.121094 68.035157 0 17.640625 14.355469 32 32 32s32-14.359375 32-32c0-12.886719-16.9375-55.339844-22.121094-68.035157zm0 0" fill="#2196f3"/><path d="m192 181.332031c0 17.675781-14.328125 32-32 32s-32-14.324219-32-32c0-17.671875 14.328125-32 32-32s32 14.328125 32 32zm0 0" fill="#795548"/><path d="m384 181.332031c0 17.675781-14.328125 32-32 32s-32-14.324219-32-32c0-17.671875 14.328125-32 32-32s32 14.328125 32 32zm0 0" fill="#795548"/><path d="m256 512c-141.164062 0-256-114.835938-256-256s114.835938-256 256-256 256 114.835938 256 256-114.835938 256-256 256zm0-490.667969c-129.386719 0-234.667969 105.28125-234.667969 234.667969s105.28125 234.667969 234.667969 234.667969 234.667969-105.28125 234.667969-234.667969-105.28125-234.667969-234.667969-234.667969zm0 0"/><path d="m160 213.332031c-17.644531 0-32-14.355469-32-32 0-17.640625 14.355469-32 32-32s32 14.359375 32 32c0 17.644531-14.355469 32-32 32zm0-42.664062c-5.886719 0-10.667969 4.777343-10.667969 10.664062 0 5.890625 4.78125 10.667969 10.667969 10.667969s10.667969-4.777344 10.667969-10.667969c0-5.886719-4.78125-10.664062-10.667969-10.664062zm0 0"/><path d="m160 298.667969c-17.644531 0-32-14.359375-32-32 0-12.886719 16.9375-55.339844 22.121094-68.035157 3.265625-8.019531 16.472656-8.019531 19.757812 0 5.183594 12.695313 22.121094 55.148438 22.121094 68.035157 0 17.640625-14.355469 32-32 32zm0-66.5625c-5.972656 16.171875-10.625 30.488281-10.667969 34.5625 0 5.886719 4.78125 10.664062 10.667969 10.664062 5.867188 0 10.667969-4.777343 10.667969-10.664062-.066407-4.074219-4.695313-18.390625-10.667969-34.5625zm0 0"/><path d="m352 213.332031c-17.644531 0-32-14.355469-32-32 0-17.640625 14.355469-32 32-32s32 14.359375 32 32c0 17.644531-14.355469 32-32 32zm0-42.664062c-5.886719 0-10.667969 4.777343-10.667969 10.664062 0 5.890625 4.78125 10.667969 10.667969 10.667969s10.667969-4.777344 10.667969-10.667969c0-5.886719-4.78125-10.664062-10.667969-10.664062zm0 0"/><path d="m372.734375 405.332031c-3.519531 0-6.953125-1.726562-8.980469-4.90625-23.722656-36.992187-64-59.09375-107.734375-59.09375-43.730469 0-84.007812 22.101563-107.730469 59.09375-3.179687 4.949219-9.792968 6.402344-14.742187 3.222657-4.949219-3.179688-6.398437-9.769532-3.222656-14.742188 27.628906-43.136719 74.625-68.90625 125.675781-68.90625s98.046875 25.769531 125.695312 68.90625c3.179688 4.972656 1.75 11.5625-3.21875 14.742188-1.773437 1.152343-3.777343 1.683593-5.742187 1.683593zm0 0"/></svg>