<svg height="512pt" viewBox="0 0 512 512" width="512pt" xmlns="http://www.w3.org/2000/svg"><path d="m512 256c0 141.386719-114.613281 256-256 256s-256-114.613281-256-256 114.613281-256 256-256 256 114.613281 256 256zm0 0" fill="#ffc107"/><path d="m384 449.8125v-268.480469c0-5.886719-4.777344-10.664062-10.667969-10.664062h-42.664062c-5.890625 0-10.667969 4.777343-10.667969 10.664062v268.480469c-12.414062 4.417969-21.332031 16.277344-21.332031 30.1875 0 17.644531 14.355469 32 32 32h42.664062c17.644531 0 32-14.355469 32-32 0-13.910156-8.917969-25.769531-21.332031-30.1875zm0 0" fill="#2196f3"/><path d="m192 449.8125v-268.480469c0-5.886719-4.777344-10.664062-10.667969-10.664062h-42.664062c-5.890625 0-10.667969 4.777343-10.667969 10.664062v268.480469c-12.414062 4.417969-21.332031 16.277344-21.332031 30.1875 0 17.644531 14.355469 32 32 32h42.664062c17.644531 0 32-14.355469 32-32 0-13.910156-8.917969-25.769531-21.332031-30.1875zm0 0" fill="#2196f3"/><path d="m202.667969 192h-85.335938c-5.886719 0-10.664062-4.777344-10.664062-10.667969 0-5.886719 4.777343-10.664062 10.664062-10.664062h85.335938c5.886719 0 10.664062 4.777343 10.664062 10.664062 0 5.890625-4.777343 10.667969-10.664062 10.667969zm0 0"/><path d="m394.667969 192h-85.335938c-5.886719 0-10.664062-4.777344-10.664062-10.667969 0-5.886719 4.777343-10.664062 10.664062-10.664062h85.335938c5.886719 0 10.664062 4.777343 10.664062 10.664062 0 5.890625-4.777343 10.667969-10.664062 10.667969zm0 0"/><path d="m386.390625 474.21875c-3.542969 0-7-1.769531-9.023437-4.972656-3.136719-4.988282-1.644532-11.5625 3.324218-14.71875 68.867188-43.371094 109.976563-117.589844 109.976563-198.527344 0-129.386719-105.28125-234.667969-234.667969-234.667969s-234.667969 105.28125-234.667969 234.667969c0 80.9375 41.109375 155.15625 109.953125 198.527344 4.972656 3.136718 6.484375 9.730468 3.328125 14.71875-3.113281 4.992187-9.726562 6.488281-14.699219 3.328125-75.070312-47.273438-119.914062-128.253907-119.914062-216.574219 0-141.164062 114.835938-256 256-256s256 114.835938 256 256c0 88.320312-44.84375 169.300781-119.914062 216.574219-1.769532 1.109375-3.734376 1.644531-5.695313 1.644531zm0 0"/><path d="m256 512c-20.011719 0-40.640625-2.601562-61.375-7.703125-5.71875-1.40625-9.21875-7.1875-7.789062-12.90625 1.386718-5.714844 7-9.234375 12.90625-7.804687 38.082031 9.382812 74.414062 9.382812 112.492187 0 5.84375-1.472657 11.5 2.089843 12.90625 7.804687 1.410156 5.71875-2.089844 11.5-7.785156 12.90625-20.714844 5.101563-41.367188 7.703125-61.355469 7.703125zm0 0"/><path d="m330.667969 363.519531c-1.984375 0-4.011719-.554687-5.78125-1.707031-41.621094-26.816406-96.171875-26.816406-137.792969 0-4.90625 3.15625-11.519531 1.773438-14.71875-3.179688-3.203125-4.949218-1.773438-11.539062 3.175781-14.738281 48.492188-31.253906 112.386719-31.253906 160.875 0 4.949219 3.199219 6.402344 9.789063 3.179688 14.738281-2.027344 3.160157-5.441407 4.886719-8.9375 4.886719zm0 0"/><path d="m373.332031 512h-42.664062c-17.644531 0-32-14.355469-32-32 0-13.910156 8.917969-25.769531 21.332031-30.1875v-268.480469c0-5.886719 4.777344-10.664062 10.667969-10.664062h42.664062c5.890625 0 10.667969 4.777343 10.667969 10.664062v268.480469c12.414062 4.417969 21.332031 16.277344 21.332031 30.1875 0 17.644531-14.355469 32-32 32zm-32-320v266.667969c0 5.886719-4.777343 10.664062-10.664062 10.664062-5.867188 0-10.667969 4.78125-10.667969 10.667969s4.800781 10.667969 10.667969 10.667969h42.664062c5.867188 0 10.667969-4.78125 10.667969-10.667969s-4.800781-10.667969-10.667969-10.667969c-5.886719 0-10.664062-4.777343-10.664062-10.664062v-266.667969zm0 0"/><path d="m181.332031 512h-42.664062c-17.644531 0-32-14.355469-32-32 0-13.910156 8.917969-25.769531 21.332031-30.1875v-268.480469c0-5.886719 4.777344-10.664062 10.667969-10.664062h42.664062c5.890625 0 10.667969 4.777343 10.667969 10.664062v268.480469c12.414062 4.417969 21.332031 16.277344 21.332031 30.1875 0 17.644531-14.355469 32-32 32zm-32-320v266.667969c0 5.886719-4.777343 10.664062-10.664062 10.664062-5.867188 0-10.667969 4.78125-10.667969 10.667969s4.800781 10.667969 10.667969 10.667969h42.664062c5.867188 0 10.667969-4.78125 10.667969-10.667969s-4.800781-10.667969-10.667969-10.667969c-5.886719 0-10.664062-4.777343-10.664062-10.664062v-266.667969zm0 0"/></svg>