<svg height="512pt" viewBox="0 0 512 512" width="512pt" xmlns="http://www.w3.org/2000/svg"><path d="m512 256c0 141.386719-114.613281 256-256 256s-256-114.613281-256-256 114.613281-256 256-256 256 114.613281 256 256zm0 0" fill="#ffc107"/><path d="m256 512c-141.164062 0-256-114.835938-256-256s114.835938-256 256-256 256 114.835938 256 256-114.835938 256-256 256zm0-490.667969c-129.386719 0-234.667969 105.28125-234.667969 234.667969s105.28125 234.667969 234.667969 234.667969 234.667969-105.28125 234.667969-234.667969-105.28125-234.667969-234.667969-234.667969zm0 0"/><path d="m373.332031 362.667969h-234.664062c-5.890625 0-10.667969-4.78125-10.667969-10.667969s4.777344-10.667969 10.667969-10.667969h234.664062c5.890625 0 10.667969 4.78125 10.667969 10.667969s-4.777344 10.667969-10.667969 10.667969zm0 0"/><path d="m202.667969 234.667969c-2.730469 0-5.460938-1.046875-7.554688-3.117188l-85.332031-85.332031c-4.160156-4.160156-4.160156-10.921875 0-15.082031 4.160156-4.160157 10.921875-4.160157 15.082031 0l85.335938 85.332031c4.15625 4.160156 4.15625 10.921875 0 15.082031-2.070313 2.070313-4.800781 3.117188-7.53125 3.117188zm0 0"/><path d="m117.332031 234.667969c-2.730469 0-5.460937-1.046875-7.550781-3.117188-4.160156-4.160156-4.160156-10.921875 0-15.082031l85.332031-85.332031c4.160157-4.160157 10.925781-4.160157 15.085938 0 4.15625 4.160156 4.15625 10.921875 0 15.082031l-85.335938 85.332031c-2.070312 2.070313-4.800781 3.117188-7.53125 3.117188zm0 0"/><path d="m394.667969 234.667969c-2.730469 0-5.460938-1.046875-7.554688-3.117188l-85.332031-85.332031c-4.160156-4.160156-4.160156-10.921875 0-15.082031 4.160156-4.160157 10.921875-4.160157 15.082031 0l85.335938 85.332031c4.15625 4.160156 4.15625 10.921875 0 15.082031-2.070313 2.070313-4.800781 3.117188-7.53125 3.117188zm0 0"/><path d="m309.332031 234.667969c-2.730469 0-5.460937-1.046875-7.550781-3.117188-4.160156-4.160156-4.160156-10.921875 0-15.082031l85.332031-85.332031c4.160157-4.160157 10.925781-4.160157 15.085938 0 4.15625 4.160156 4.15625 10.921875 0 15.082031l-85.335938 85.332031c-2.070312 2.070313-4.800781 3.117188-7.53125 3.117188zm0 0"/></svg>