<svg height="512pt" viewBox="0 0 512 512" width="512pt" xmlns="http://www.w3.org/2000/svg"><path d="m512 256c0 141.386719-114.613281 256-256 256s-256-114.613281-256-256 114.613281-256 256-256 256 114.613281 256 256zm0 0" fill="#ffc107"/><path d="m212.542969 347.96875c-3.285157-8.023438-16.445313-8.023438-19.753907 0-5.183593 12.691406-22.121093 55.144531-22.121093 68.03125 0 17.644531 14.355469 32 32 32 17.640625 0 32-14.355469 32-32 0-12.886719-16.941407-55.339844-22.125-68.03125zm0 0" fill="#2196f3"/><path d="m319.1875 347.902344c-.851562-2.023438-20.988281-49.234375-63.1875-49.234375s-62.335938 47.210937-63.1875 49.234375c-1.347656 3.285156-1.003906 7.0625.980469 10.027344 1.984375 2.964843 5.3125 4.738281 8.875 4.738281h106.664062c3.5625 0 6.890625-1.773438 8.875-4.757813 1.984375-2.988281 2.328125-6.722656.980469-10.007812zm0 0" fill="#f44336"/><path d="m192 181.332031c0 17.675781-14.328125 32-32 32s-32-14.324219-32-32c0-17.671875 14.328125-32 32-32s32 14.328125 32 32zm0 0" fill="#795548"/><path d="m384 181.332031c0 17.675781-14.328125 32-32 32s-32-14.324219-32-32c0-17.671875 14.328125-32 32-32s32 14.328125 32 32zm0 0" fill="#795548"/><path d="m202.667969 448c-17.644531 0-32-14.355469-32-32 0-12.886719 16.9375-55.339844 22.121093-68.03125 3.285157-8.023438 16.449219-8.023438 19.753907 0 5.183593 12.691406 22.125 55.144531 22.125 68.03125 0 17.644531-14.359375 32-32 32zm0-66.558594c-5.953125 16.167969-10.605469 30.484375-10.667969 34.558594 0 5.886719 4.800781 10.667969 10.667969 10.667969 5.867187 0 10.664062-4.78125 10.664062-10.667969-.0625-4.074219-4.714843-18.390625-10.664062-34.558594zm0 0"/><path d="m256 512c-141.164062 0-256-114.835938-256-256s114.835938-256 256-256 256 114.835938 256 256-114.835938 256-256 256zm0-490.667969c-129.386719 0-234.667969 105.28125-234.667969 234.667969s105.28125 234.667969 234.667969 234.667969 234.667969-105.28125 234.667969-234.667969-105.28125-234.667969-234.667969-234.667969zm0 0"/><path d="m160 234.667969c-29.417969 0-53.332031-23.9375-53.332031-53.335938 0-29.394531 23.914062-53.332031 53.332031-53.332031s53.332031 23.9375 53.332031 53.332031c0 29.398438-23.914062 53.335938-53.332031 53.335938zm0-85.335938c-17.644531 0-32 14.359375-32 32 0 17.644531 14.355469 32 32 32s32-14.355469 32-32c0-17.640625-14.355469-32-32-32zm0 0"/><path d="m352 234.667969c-29.417969 0-53.332031-23.9375-53.332031-53.335938 0-29.394531 23.914062-53.332031 53.332031-53.332031s53.332031 23.9375 53.332031 53.332031c0 29.398438-23.914062 53.335938-53.332031 53.335938zm0-85.335938c-17.644531 0-32 14.359375-32 32 0 17.644531 14.355469 32 32 32s32-14.355469 32-32c0-17.640625-14.355469-32-32-32zm0 0"/><path d="m309.332031 362.667969h-106.664062c-3.5625 0-6.890625-1.773438-8.875-4.757813-1.984375-2.988281-2.328125-6.722656-.980469-10.027344.851562-2.003906 20.988281-49.214843 63.1875-49.214843s62.335938 47.210937 63.1875 49.234375c1.347656 3.285156 1.003906 7.0625-.980469 10.027344-1.984375 2.964843-5.3125 4.738281-8.875 4.738281zm-88.125-21.335938h69.585938c-7.292969-9.984375-19.070313-21.332031-34.792969-21.332031s-27.5 11.347656-34.792969 21.332031zm0 0"/></svg>