<svg height="512pt" viewBox="0 0 512 512" width="512pt" xmlns="http://www.w3.org/2000/svg"><path d="m512 256c0 141.386719-114.613281 256-256 256s-256-114.613281-256-256 114.613281-256 256-256 256 114.613281 256 256zm0 0" fill="#ffc107"/><path d="m192 202.667969c0 17.671875-14.328125 32-32 32s-32-14.328125-32-32c0-17.675781 14.328125-32 32-32s32 14.324219 32 32zm0 0" fill="#795548"/><path d="m384 202.667969c0 17.671875-14.328125 32-32 32s-32-14.328125-32-32c0-17.675781 14.328125-32 32-32s32 14.324219 32 32zm0 0" fill="#795548"/><path d="m437.910156 302.996094c-2.007812-2.730469-5.183594-4.328125-8.578125-4.328125h-346.664062c-3.394531 0-6.570313 1.597656-8.578125 4.328125-2.003906 2.710937-2.601563 6.230468-1.621094 9.453125 24.917969 81.085937 98.667969 135.550781 183.53125 135.550781s158.613281-54.464844 183.53125-135.550781c.980469-3.222657.40625-6.742188-1.621094-9.453125zm0 0" fill="#fafafa"/><path d="m256 512c-141.164062 0-256-114.835938-256-256s114.835938-256 256-256 256 114.835938 256 256-114.835938 256-256 256zm0-490.667969c-129.386719 0-234.667969 105.28125-234.667969 234.667969s105.28125 234.667969 234.667969 234.667969 234.667969-105.28125 234.667969-234.667969-105.28125-234.667969-234.667969-234.667969zm0 0"/><path d="m160 234.667969c-17.644531 0-32-14.359375-32-32 0-17.644531 14.355469-32 32-32s32 14.355469 32 32c0 17.640625-14.355469 32-32 32zm0-42.667969c-5.867188 0-10.667969 4.777344-10.667969 10.667969 0 5.886719 4.800781 10.664062 10.667969 10.664062s10.667969-4.777343 10.667969-10.664062c0-5.890625-4.800781-10.667969-10.667969-10.667969zm0 0"/><path d="m352 234.667969c-17.644531 0-32-14.359375-32-32 0-17.644531 14.355469-32 32-32s32 14.355469 32 32c0 17.640625-14.355469 32-32 32zm0-42.667969c-5.867188 0-10.667969 4.777344-10.667969 10.667969 0 5.886719 4.800781 10.664062 10.667969 10.664062s10.667969-4.777343 10.667969-10.664062c0-5.890625-4.800781-10.667969-10.667969-10.667969zm0 0"/><path d="m256 448c-84.886719 0-158.632812-54.464844-183.53125-135.53125-1.003906-3.242188-.40625-6.742188 1.601562-9.472656 2.027344-2.730469 5.226563-4.328125 8.597657-4.328125h346.664062c3.371094 0 6.570313 1.597656 8.578125 4.328125 2.003906 2.730468 2.601563 6.230468 1.597656 9.472656-24.875 81.066406-98.621093 135.53125-183.507812 135.53125zm-158.25-128c25.855469 64.382812 87.722656 106.667969 158.25 106.667969s132.394531-42.285157 158.25-106.667969zm0 0"/><path d="m202.667969 170.667969c-1.132813 0-2.242188-.171875-3.371094-.554688l-64-21.335937c-5.589844-1.855469-8.621094-7.890625-6.761719-13.480469 1.875-5.589844 7.914063-8.597656 13.503906-6.742187l64 21.332031c5.585938 1.855469 8.59375 7.894531 6.738282 13.484375-1.492188 4.480468-5.652344 7.296875-10.109375 7.296875zm0 0"/><path d="m309.332031 170.667969c-4.457031 0-8.617187-2.816407-10.132812-7.296875-1.855469-5.589844 1.175781-11.628906 6.742187-13.484375l64-21.332031c5.609375-1.855469 11.625 1.152343 13.503906 6.742187 1.855469 5.589844-1.171874 11.625-6.742187 13.480469l-64 21.335937c-1.128906.382813-2.238281.554688-3.371094.554688zm0 0"/></svg>