<svg height="512pt" viewBox="0 0 512 512" width="512pt" xmlns="http://www.w3.org/2000/svg"><path d="m512 256c0 141.386719-114.613281 256-256 256s-256-114.613281-256-256 114.613281-256 256-256 256 114.613281 256 256zm0 0" fill="#ffc107"/><path d="m437.910156 302.996094c-2.007812-2.730469-5.207031-4.328125-8.578125-4.328125h-346.664062c-3.371094 0-6.570313 1.597656-8.578125 4.328125-2.003906 2.730468-2.601563 6.230468-1.597656 9.472656 24.875 81.066406 98.621093 135.53125 183.507812 135.53125s158.632812-54.464844 183.53125-135.53125c.980469-3.242188.382812-6.742188-1.621094-9.472656zm0 0" fill="#fafafa"/><path d="m224 170.667969c-24.128906 0-36.800781-2.796875-43.667969-9.6875-6.871093-6.890625-9.664062-19.519531-9.664062-43.648438 0-5.886719-4.78125-10.664062-10.667969-10.664062s-10.667969 4.777343-10.667969 10.664062c0 24.128907-2.792969 36.78125-9.664062 43.648438-6.867188 6.871093-19.539063 9.6875-43.667969 9.6875-5.886719 0-10.667969 4.777343-10.667969 10.664062 0 5.890625 4.78125 10.667969 10.667969 10.667969 24.128906 0 36.800781 2.792969 43.667969 9.683594 6.871093 6.890625 9.664062 19.523437 9.664062 43.648437 0 5.890625 4.78125 10.667969 10.667969 10.667969s10.667969-4.777344 10.667969-10.667969c0-24.125 2.792969-36.777343 9.664062-43.648437 6.867188-6.867188 19.539063-9.683594 43.667969-9.683594 5.886719 0 10.667969-4.777344 10.667969-10.667969 0-5.886719-4.78125-10.664062-10.667969-10.664062zm0 0" fill="#4caf50"/><path d="m416 170.667969c-24.128906 0-36.800781-2.796875-43.667969-9.6875-6.871093-6.890625-9.664062-19.519531-9.664062-43.648438 0-5.886719-4.78125-10.664062-10.667969-10.664062s-10.667969 4.777343-10.667969 10.664062c0 24.128907-2.792969 36.78125-9.664062 43.648438-6.867188 6.871093-19.539063 9.6875-43.667969 9.6875-5.886719 0-10.667969 4.777343-10.667969 10.664062 0 5.890625 4.78125 10.667969 10.667969 10.667969 24.128906 0 36.800781 2.792969 43.667969 9.683594 6.871093 6.890625 9.664062 19.523437 9.664062 43.648437 0 5.890625 4.78125 10.667969 10.667969 10.667969s10.667969-4.777344 10.667969-10.667969c0-24.125 2.792969-36.777343 9.664062-43.648437 6.867188-6.867188 19.539063-9.683594 43.667969-9.683594 5.886719 0 10.667969-4.777344 10.667969-10.667969 0-5.886719-4.78125-10.664062-10.667969-10.664062zm0 0" fill="#4caf50"/><path d="m256 512c-141.164062 0-256-114.835938-256-256s114.835938-256 256-256 256 114.835938 256 256-114.835938 256-256 256zm0-490.667969c-129.386719 0-234.667969 105.28125-234.667969 234.667969s105.28125 234.667969 234.667969 234.667969 234.667969-105.28125 234.667969-234.667969-105.28125-234.667969-234.667969-234.667969zm0 0"/><path d="m256 448c-84.863281 0-158.613281-54.464844-183.53125-135.53125-.980469-3.242188-.40625-6.742188 1.621094-9.472656 2.007812-2.730469 5.183594-4.328125 8.578125-4.328125h346.664062c3.394531 0 6.570313 1.597656 8.578125 4.328125 2.003906 2.710937 2.601563 6.230468 1.621094 9.472656-24.917969 81.066406-98.667969 135.53125-183.53125 135.53125zm-158.25-128c25.855469 64.382812 87.742188 106.667969 158.25 106.667969s132.394531-42.285157 158.25-106.667969zm0 0"/><path d="m160 256c-5.886719 0-10.667969-4.777344-10.667969-10.667969 0-24.125-2.792969-36.777343-9.683593-43.648437-6.890626-6.867188-19.519532-9.683594-43.648438-9.683594-5.886719 0-10.667969-4.777344-10.667969-10.667969 0-5.886719 4.78125-10.664062 10.667969-10.664062 24.128906 0 36.777344-2.796875 43.648438-9.6875 6.867187-6.890625 9.683593-19.519531 9.683593-43.648438 0-5.886719 4.78125-10.664062 10.667969-10.664062s10.667969 4.777343 10.667969 10.664062c0 24.128907 2.792969 36.78125 9.683593 43.648438 6.890626 6.871093 19.519532 9.6875 43.648438 9.6875 5.886719 0 10.667969 4.777343 10.667969 10.664062 0 5.890625-4.78125 10.667969-10.667969 10.667969-24.128906 0-36.777344 2.792969-43.648438 9.683594-6.867187 6.890625-9.683593 19.523437-9.683593 43.648437 0 5.890625-4.78125 10.667969-10.667969 10.667969zm-11.648438-74.667969c2.28125 1.539063 4.417969 3.285157 6.378907 5.269531 1.960937 1.984376 3.734375 4.097657 5.269531 6.378907 1.535156-2.28125 3.285156-4.414063 5.269531-6.378907 1.984375-1.960937 4.097657-3.730468 6.378907-5.269531-2.28125-1.535156-4.417969-3.285156-6.378907-5.269531-1.960937-1.984375-3.734375-4.09375-5.269531-6.378906-1.535156 2.285156-3.285156 4.417968-5.269531 6.378906-1.984375 1.964844-4.097657 3.734375-6.378907 5.269531zm0 0"/><path d="m352 256c-5.886719 0-10.667969-4.777344-10.667969-10.667969 0-24.125-2.792969-36.777343-9.683593-43.648437-6.890626-6.867188-19.519532-9.683594-43.648438-9.683594-5.886719 0-10.667969-4.777344-10.667969-10.667969 0-5.886719 4.78125-10.664062 10.667969-10.664062 24.128906 0 36.777344-2.796875 43.648438-9.6875 6.867187-6.890625 9.683593-19.519531 9.683593-43.648438 0-5.886719 4.78125-10.664062 10.667969-10.664062s10.667969 4.777343 10.667969 10.664062c0 24.128907 2.792969 36.78125 9.683593 43.648438 6.890626 6.871093 19.519532 9.6875 43.648438 9.6875 5.886719 0 10.667969 4.777343 10.667969 10.664062 0 5.890625-4.78125 10.667969-10.667969 10.667969-24.128906 0-36.777344 2.792969-43.648438 9.683594-6.867187 6.890625-9.683593 19.523437-9.683593 43.648437 0 5.890625-4.78125 10.667969-10.667969 10.667969zm-11.648438-74.667969c2.28125 1.539063 4.417969 3.285157 6.378907 5.269531 1.960937 1.984376 3.734375 4.097657 5.269531 6.378907 1.535156-2.28125 3.285156-4.414063 5.269531-6.378907 1.984375-1.960937 4.097657-3.730468 6.378907-5.269531-2.28125-1.535156-4.417969-3.285156-6.378907-5.269531-1.960937-1.984375-3.734375-4.09375-5.269531-6.378906-1.535156 2.285156-3.285156 4.417968-5.269531 6.378906-1.984375 1.964844-4.097657 3.734375-6.378907 5.269531zm0 0"/></svg>