<svg height="512pt" viewBox="0 0 512 512" width="512pt" xmlns="http://www.w3.org/2000/svg"><path d="m512 256c0 141.386719-114.613281 256-256 256s-256-114.613281-256-256 114.613281-256 256-256 256 114.613281 256 256zm0 0" fill="#ffc107"/><path d="m429.332031 298.667969h-346.664062c-3.371094 0-6.570313 1.597656-8.578125 4.328125-2.003906 2.730468-2.601563 6.230468-1.597656 9.472656 24.875 81.066406 98.621093 135.53125 183.507812 135.53125s158.632812-54.464844 183.53125-135.53125c1.003906-3.242188.40625-6.742188-1.601562-9.472656-2.027344-2.730469-5.226563-4.328125-8.597657-4.328125zm0 0" fill="#fafafa"/><path d="m256 512c-141.164062 0-256-114.835938-256-256s114.835938-256 256-256 256 114.835938 256 256-114.835938 256-256 256zm0-490.667969c-129.386719 0-234.667969 105.28125-234.667969 234.667969s105.28125 234.667969 234.667969 234.667969 234.667969-105.28125 234.667969-234.667969-105.28125-234.667969-234.667969-234.667969zm0 0"/><path d="m256 448c-84.863281 0-158.613281-54.464844-183.53125-135.53125-.980469-3.242188-.40625-6.742188 1.621094-9.472656 2.007812-2.730469 5.183594-4.328125 8.578125-4.328125h346.664062c3.394531 0 6.570313 1.597656 8.578125 4.328125 2.003906 2.710937 2.601563 6.230468 1.621094 9.472656-24.917969 81.066406-98.667969 135.53125-183.53125 135.53125zm-158.25-128c25.855469 64.382812 87.742188 106.667969 158.25 106.667969s132.394531-42.285157 158.25-106.667969zm0 0"/><path d="m181.332031 192h-64c-5.886719 0-10.664062-4.777344-10.664062-10.667969 0-5.886719 4.777343-10.664062 10.664062-10.664062h64c5.890625 0 10.667969 4.777343 10.667969 10.664062 0 5.890625-4.777344 10.667969-10.667969 10.667969zm0 0"/><path d="m394.667969 192h-64c-5.890625 0-10.667969-4.777344-10.667969-10.667969 0-5.886719 4.777344-10.664062 10.667969-10.664062h64c5.886719 0 10.664062 4.777343 10.664062 10.664062 0 5.890625-4.777343 10.667969-10.664062 10.667969zm0 0"/></svg>