<svg height="512pt" viewBox="0 0 512 512.00222" width="512pt" xmlns="http://www.w3.org/2000/svg"><path d="m512.003906 256.003906c0 141.382813-114.617187 256-256 256-141.386718 0-255.99999975-114.617187-255.99999975-256 0-141.386718 114.61328175-255.99999975 255.99999975-255.99999975 141.382813 0 256 114.61328175 256 255.99999975zm0 0" fill="#ffc107"/><path d="m256.003906 512.003906c-141.164062 0-255.99999975-114.839844-255.99999975-256 0-29.035156 5.09765575-58.050781 15.18749975-86.210937 2.003906-5.523438 8.085938-8.425781 13.652344-6.441407 5.546875 1.984376 8.429688 8.085938 6.445312 13.632813-9.261718 25.855469-13.953124 52.4375-13.953124 79.019531 0 129.386719 105.28125 234.664063 234.667968 234.664063 129.386719 0 234.664063-105.277344 234.664063-234.664063 0-129.386718-105.277344-234.667968-234.664063-234.667968-26.605468 0-53.183594 4.691406-79 13.929687-5.546875 2.007813-11.667968-.894531-13.652344-6.441406-1.984374-5.546875.894532-11.648438 6.441407-13.632813 28.140625-10.070312 57.152343-15.18749975 86.210937-15.18749975 141.160156 0 256 114.83593775 256 255.99999975 0 141.160156-114.839844 256-256 256zm0 0"/><path d="m181.335938 277.335938h-42.667969c-5.886719 0-10.664063-4.777344-10.664063-10.667969 0-5.886719 4.777344-10.664063 10.664063-10.664063h42.667969c5.886718 0 10.667968 4.777344 10.667968 10.664063 0 5.890625-4.78125 10.667969-10.667968 10.667969zm0 0"/><path d="m373.335938 277.335938h-42.667969c-5.886719 0-10.664063-4.777344-10.664063-10.667969 0-5.886719 4.777344-10.664063 10.664063-10.664063h42.667969c5.886718 0 10.667968 4.777344 10.667968 10.664063 0 5.890625-4.78125 10.667969-10.667968 10.667969zm0 0"/><path d="m309.335938 384.003906h-106.667969c-5.886719 0-10.664063-4.78125-10.664063-10.667968 0-5.886719 4.777344-10.667969 10.664063-10.667969h106.667969c5.886718 0 10.667968 4.78125 10.667968 10.667969 0 5.886718-4.78125 10.667968-10.667968 10.667968zm0 0"/><path d="m20.996094 107.457031c-7.191406 0-11.882813-.894531-12.417969-1-5.78125-1.152343-9.535156-6.765625-8.363281-12.546875 1.152344-5.800781 7.0625-9.554687 12.546875-8.359375 1.171875.191407 30.546875 5.417969 54.375-18.414062 24.109375-24.148438 18.476562-54.078125 18.414062-54.378907-1.152343-5.78125 2.578125-11.390624 8.359375-12.542968 5.699219-1.171875 11.394532 2.5625 12.546875 8.363281.339844 1.683594 7.847657 41.515625-24.257812 73.644531-21.523438 21.542969-46.570313 25.234375-61.203125 25.234375zm0 0"/><path d="m213.675781 107.457031c-14.632812 0-39.65625-3.691406-61.203125-25.257812-32.109375-32.105469-24.597656-71.9375-24.257812-73.621094 1.152344-5.800781 6.871094-9.535156 12.546875-8.363281 5.78125 1.152344 9.492187 6.742187 8.402343 12.480468-.277343 1.238282-5.460937 30.59375 18.390626 54.421876 24.128906 24.128906 54.058593 18.472656 54.378906 18.410156 5.480468-1.195313 11.371094 2.582031 12.542968 8.363281 1.175782 5.78125-2.582031 11.390625-8.382812 12.542969-.554688.148437-5.226562 1.023437-12.417969 1.023437zm0 0"/><path d="m138.648438 234.667969c-4.972657 0-9.410157-3.496094-10.433594-8.574219-.339844-1.6875-7.851563-41.515625 24.257812-73.644531 32.148438-32.148438 72-24.597657 73.621094-24.253907 5.78125 1.152344 9.535156 6.761719 8.382812 12.542969-1.171874 5.800781-7.039062 9.492188-12.542968 8.363281-1.214844-.214843-30.570313-5.417968-54.378906 18.453126-24.128907 24.128906-18.476563 54.078124-18.410157 54.355468 1.152344 5.78125-2.582031 11.394532-8.382812 12.546875-.726563.148438-1.410157.210938-2.113281.210938zm0 0"/><path d="m96.023438 234.667969c-.703126 0-1.386719-.0625-2.113282-.210938-5.78125-1.152343-9.492187-6.742187-8.402344-12.480469.253907-1.238281 5.4375-30.59375-18.390624-54.421874-24.105469-24.128907-54.039063-18.496094-54.355469-18.433594-5.484375 1.132812-11.394531-2.558594-12.546875-8.363282-1.171875-5.78125 2.582031-11.390624 8.363281-12.542968 1.621094-.363282 41.492187-7.894532 73.621094 24.257812 32.105469 32.105469 24.578125 71.957032 24.257812 73.640625-1.023437 5.058594-5.460937 8.554688-10.433593 8.554688zm0 0"/></svg>