<svg height="512pt" viewBox="0 0 512 512" width="512pt" xmlns="http://www.w3.org/2000/svg"><path d="m368 0c-43.902344 0-84.757812 19.796875-112 53.632812-27.242188-33.835937-68.097656-53.632812-112-53.632812-79.402344 0-144 64.597656-144 144 0 170.367188 239.273438 357.867188 249.472656 365.78125 1.917969 1.472656 4.222656 2.21875 6.527344 2.21875s4.609375-.746094 6.527344-2.21875c10.199218-7.914062 249.472656-195.414062 249.472656-365.78125 0-79.402344-64.597656-144-144-144zm0 0" fill="#f44336"/><path d="m256 512c-2.304688 0-4.609375-.746094-6.550781-2.238281-10.175781-7.894531-249.449219-195.371094-249.449219-365.761719 0-79.402344 64.597656-144 144-144 43.902344 0 84.757812 19.796875 112 53.632812 27.222656-33.835937 68.074219-53.632812 112-53.632812 79.402344 0 144 64.597656 144 144 0 170.390625-239.273438 357.867188-249.449219 365.761719-1.941406 1.492187-4.246093 2.238281-6.550781 2.238281zm-112-490.667969c-67.648438 0-122.667969 55.042969-122.667969 122.667969 0 144.917969 196.054688 312.148438 234.667969 343.660156 38.613281-31.511718 234.667969-198.722656 234.667969-343.660156 0-67.625-55.019531-122.667969-122.667969-122.667969-41.769531 0-80.296875 21.035157-103.039062 56.277344-3.925782 6.082031-13.996094 6.101563-17.921876 0-22.761718-35.242187-61.289062-56.277344-103.039062-56.277344zm0 0"/></svg>