<svg height="512pt" viewBox="0 0 512.00549 512" width="512pt" xmlns="http://www.w3.org/2000/svg"><path d="m512 256.003906c0 141.382813-114.613281 256-256 256s-256-114.617187-256-256c0-141.386718 114.613281-255.99999975 256-255.99999975s256 114.61328175 256 255.99999975zm0 0" fill="#ffc107"/><path d="m202.667969 149.335938c35.667969 35.667968 34.664062 138.667968-74.667969 138.667968-80.894531 0-96-44.4375-96-64s9.769531-62.230468-21.332031-64c0 0 55.101562-21.335937 117.332031-21.335937zm0 0" fill="#fafafa"/><path d="m309.332031 149.335938c-35.667969 35.667968-34.664062 138.667968 74.667969 138.667968 80.894531 0 96-44.4375 96-64s-9.769531-62.230468 21.332031-64c0 0-55.101562-21.335937-117.332031-21.335937zm0 0" fill="#fafafa"/><path d="m170.667969 202.667969c0 17.675781-14.328125 32-32 32-17.675781 0-32-14.324219-32-32 0-17.671875 14.324219-32 32-32 17.671875 0 32 14.328125 32 32zm0 0" fill="#795548"/><path d="m405.332031 202.667969c0 17.675781-14.324219 32-32 32-17.671875 0-32-14.324219-32-32 0-17.671875 14.328125-32 32-32 17.675781 0 32 14.328125 32 32zm0 0" fill="#795548"/><path d="m447.425781 348.546875c-1.582031-4.542969-5.761719-7.445313-10.796875-7.191406-54.3125 3.523437-91.777344-7.699219-116.609375-15.167969-11.921875-3.582031-20.519531-6.183594-27.753906-6.183594-15.230469 0-46.933594 0-46.933594 42.664063 0 42.667969 62.636719 42.667969 83.203125 42.667969 36.648438 0 94.164063-30.570313 114.773438-44.5 3.988281-2.6875 5.671875-7.746094 4.117187-12.289063zm0 0" fill="#455a64"/><path d="m219.734375 320.003906c-7.210937 0-15.832031 2.601563-27.753906 6.183594-24.855469 7.46875-62.445313 18.691406-116.609375 15.167969-4.992188-.253907-9.238282 2.648437-10.796875 7.191406-1.554688 4.542969.128906 9.601563 4.117187 12.289063 20.609375 13.929687 78.125 44.5 114.773438 44.5 20.566406 0 83.203125 0 83.203125-42.667969 0-42.664063-31.703125-42.664063-46.933594-42.664063zm0 0" fill="#455a64"/><path d="m384 298.667969c-66.132812 0-90.515625-35.027344-99.15625-55.914063-10.15625-24.46875-9.152344-53.949218 1.152344-77.355468-23.617188 6.125-36.332032 6.125-59.96875 0 10.28125 23.40625 11.285156 52.886718 1.152344 77.355468-8.664063 20.886719-33.046876 55.914063-99.179688 55.914063-84.203125 0-106.667969-46.933594-106.667969-74.664063 0-3.648437.320313-8.085937.664063-12.886718.875-12.074219 2.21875-30.355469-3.796875-37.207032-1.109375-1.277344-3.160157-2.984375-8.128907-3.261718-5.035156-.277344-9.152343-4.03125-9.941406-8.980469-.769531-4.972657 2.003906-9.792969 6.675782-11.605469 2.347656-.898438 57.6875-22.058594 121.195312-22.058594 40.0625 0 72.449219 8.574219 96.085938 14.824219 13.160156 3.5 24.554687 6.507813 31.914062 6.507813s18.753906-3.007813 31.914062-6.507813c23.636719-6.25 56.023438-14.824219 96.085938-14.824219 63.507812 0 118.847656 21.160156 121.195312 22.058594 4.691407 1.8125 7.464844 6.65625 6.675782 11.605469-.789063 4.949219-4.90625 8.703125-9.941406 8.980469-4.949219.296874-7.019532 2.003906-8.128907 3.261718-6.015625 6.851563-4.691406 25.109375-3.816406 37.207032.363281 4.800781.683594 9.238281.683594 12.886718 0 27.730469-22.464844 74.664063-106.667969 74.664063zm-67.945312-140.96875c-14.65625 15.53125-23.125 48.851562-11.519532 76.886719 8.082032 19.496093 28.414063 42.75 79.464844 42.75 82.945312 0 85.332031-47.871094 85.332031-53.332032 0-3.222656-.296875-7.105468-.597656-11.351562-1.191406-16.234375-2.621094-36.136719 6.679687-49.769532-21.183593-5.972656-55.234374-13.546874-91.414062-13.546874-26.238281 0-48.660156 3.882812-67.945312 8.363281zm-279.46875 5.183593c9.324218 13.632813 7.871093 33.535157 6.679687 49.769532-.300781 4.246094-.597656 8.128906-.597656 11.351562 0 5.460938 2.386719 53.332032 85.332031 53.332032 51.050781 0 71.382812-23.253907 79.464844-42.75 11.605468-28.035157 3.117187-61.355469-11.519532-76.886719-19.285156-4.480469-41.707031-8.363281-67.945312-8.363281-36.179688 0-70.230469 7.574218-91.414062 13.546874zm0 0"/><path d="m288 224.003906c-5.886719 0-10.667969-4.78125-10.667969-10.667968 0-5.3125-6.613281-10.667969-21.332031-10.667969s-21.332031 5.355469-21.332031 10.667969c0 5.886718-4.78125 10.667968-10.667969 10.667968s-10.667969-4.78125-10.667969-10.667968c0-15.9375 13.183594-32 42.667969-32s42.667969 16.0625 42.667969 32c0 5.886718-4.78125 10.667968-10.667969 10.667968zm0 0"/><path d="m256 512.003906c-141.164062 0-256-114.839844-256-256 0-141.164062 114.835938-255.99999975 256-255.99999975s256 114.83593775 256 255.99999975c0 141.160156-114.835938 256-256 256zm0-490.667968c-129.386719 0-234.667969 105.28125-234.667969 234.667968 0 129.386719 105.28125 234.664063 234.667969 234.664063s234.667969-105.277344 234.667969-234.664063c0-129.386718-105.28125-234.667968-234.667969-234.667968zm0 0"/><path d="m138.667969 234.667969c-17.644531 0-32-14.355469-32-32 0-17.640625 14.355469-32 32-32 17.640625 0 32 14.359375 32 32 0 17.644531-14.359375 32-32 32zm0-42.664063c-5.867188 0-10.667969 4.777344-10.667969 10.664063 0 5.890625 4.800781 10.667969 10.667969 10.667969 5.867187 0 10.664062-4.777344 10.664062-10.667969 0-5.886719-4.796875-10.664063-10.664062-10.664063zm0 0"/><path d="m373.332031 234.667969c-17.640625 0-32-14.355469-32-32 0-17.640625 14.359375-32 32-32 17.644531 0 32 14.359375 32 32 0 17.644531-14.355469 32-32 32zm0-42.664063c-5.867187 0-10.664062 4.777344-10.664062 10.664063 0 5.890625 4.796875 10.667969 10.664062 10.667969 5.867188 0 10.667969-4.777344 10.667969-10.667969 0-5.886719-4.800781-10.664063-10.667969-10.664063zm0 0"/><path d="m328.535156 405.335938c-20.589844 0-83.203125 0-83.203125-42.667969 0-42.664063 31.703125-42.664063 46.933594-42.664063 7.210937 0 15.832031 2.601563 27.734375 6.183594 24.851562 7.46875 62.484375 18.796875 116.628906 15.167969 5.015625-.253907 9.238282 2.648437 10.796875 7.191406 1.554688 4.542969-.128906 9.601563-4.097656 12.289063-20.628906 13.929687-78.144531 44.5-114.792969 44.5zm-36.269531-64c-19.347656 0-25.597656 1.664062-25.597656 21.332031 0 17.644531 33.640625 21.335937 61.867187 21.335937 17.425782 0 44.394532-9.816406 68.050782-21.269531-36.800782-2.304687-64.382813-10.625-82.75-16.128906-9.386719-2.835938-17.472657-5.269531-21.570313-5.269531zm0 0"/><path d="m183.464844 405.335938c-36.648438 0-94.164063-30.570313-114.773438-44.5-3.988281-2.6875-5.671875-7.746094-4.09375-12.289063 1.535156-4.542969 5.375-7.445313 10.792969-7.191406 54.167969 3.585937 91.734375-7.699219 116.609375-15.167969 11.902344-3.582031 20.523438-6.183594 27.734375-6.183594 15.230469 0 46.933594 0 46.933594 42.664063 0 42.667969-62.636719 42.667969-83.203125 42.667969zm-68.074219-42.601563c23.679687 11.453125 50.625 21.269531 68.074219 21.269531 28.226562 0 61.867187-3.691406 61.867187-21.335937 0-19.667969-6.25-21.332031-25.597656-21.332031-4.074219 0-12.183594 2.433593-21.589844 5.269531-18.367187 5.523437-45.953125 13.824219-82.753906 16.128906zm0 0"/></svg>