<svg height="512pt" viewBox="0 0 512 512" width="512pt" xmlns="http://www.w3.org/2000/svg"><path d="m512 256c0 141.386719-114.613281 256-256 256s-256-114.613281-256-256 114.613281-256 256-256 256 114.613281 256 256zm0 0" fill="#ffc107"/><path d="m256 512c-141.164062 0-256-114.835938-256-256s114.835938-256 256-256 256 114.835938 256 256-114.835938 256-256 256zm0-490.667969c-129.386719 0-234.667969 105.28125-234.667969 234.667969s105.28125 234.667969 234.667969 234.667969 234.667969-105.28125 234.667969-234.667969-105.28125-234.667969-234.667969-234.667969zm0 0"/><path d="m309.332031 384h-106.664062c-5.890625 0-10.667969-4.777344-10.667969-10.667969 0-5.886719 4.777344-10.664062 10.667969-10.664062h106.664062c5.890625 0 10.667969 4.777343 10.667969 10.664062 0 5.890625-4.777344 10.667969-10.667969 10.667969zm0 0"/><path d="m224 213.332031c-5.886719 0-10.667969-4.777343-10.667969-10.664062 0-29.398438-23.914062-53.335938-53.332031-53.335938s-53.332031 23.9375-53.332031 53.335938c0 5.886719-4.78125 10.664062-10.667969 10.664062s-10.667969-4.777343-10.667969-10.664062c0-41.175781 33.496094-74.667969 74.667969-74.667969s74.667969 33.492188 74.667969 74.667969c0 5.886719-4.78125 10.664062-10.667969 10.664062zm0 0"/><path d="m181.332031 256c-29.417969 0-53.332031-23.9375-53.332031-53.332031 0-5.890625 4.777344-10.667969 10.667969-10.667969 5.886719 0 10.664062 4.777344 10.664062 10.667969 0 17.640625 14.359375 32 32 32 17.644531 0 32-14.359375 32-32 0-5.890625 4.78125-10.667969 10.667969-10.667969s10.667969 4.777344 10.667969 10.667969c0 29.394531-23.914063 53.332031-53.335938 53.332031zm0 0"/><path d="m181.332031 213.332031c-5.886719 0-10.664062-4.777343-10.664062-10.664062 0-5.890625-4.800781-10.667969-10.667969-10.667969s-10.667969 4.777344-10.667969 10.667969c0 5.886719-4.777343 10.664062-10.664062 10.664062-5.890625 0-10.667969-4.777343-10.667969-10.664062 0-17.644531 14.355469-32 32-32s32 14.355469 32 32c0 5.886719-4.777344 10.664062-10.667969 10.664062zm0 0"/><path d="m416 213.332031c-5.886719 0-10.667969-4.777343-10.667969-10.664062 0-29.398438-23.914062-53.335938-53.332031-53.335938s-53.332031 23.9375-53.332031 53.335938c0 5.886719-4.78125 10.664062-10.667969 10.664062s-10.667969-4.777343-10.667969-10.664062c0-41.175781 33.496094-74.667969 74.667969-74.667969s74.667969 33.492188 74.667969 74.667969c0 5.886719-4.78125 10.664062-10.667969 10.664062zm0 0"/><path d="m373.332031 256c-29.417969 0-53.332031-23.9375-53.332031-53.332031 0-5.890625 4.777344-10.667969 10.667969-10.667969 5.886719 0 10.664062 4.777344 10.664062 10.667969 0 17.640625 14.359375 32 32 32 17.644531 0 32-14.359375 32-32 0-5.890625 4.78125-10.667969 10.667969-10.667969s10.667969 4.777344 10.667969 10.667969c0 29.394531-23.914063 53.332031-53.335938 53.332031zm0 0"/><path d="m373.332031 213.332031c-5.886719 0-10.664062-4.777343-10.664062-10.664062 0-5.890625-4.800781-10.667969-10.667969-10.667969s-10.667969 4.777344-10.667969 10.667969c0 5.886719-4.777343 10.664062-10.664062 10.664062-5.890625 0-10.667969-4.777343-10.667969-10.664062 0-17.644531 14.355469-32 32-32s32 14.355469 32 32c0 5.886719-4.777344 10.664062-10.667969 10.664062zm0 0"/></svg>