<svg height="512pt" viewBox="0 0 512 512" width="512pt" xmlns="http://www.w3.org/2000/svg"><path d="m512 256c0 141.386719-114.613281 256-256 256s-256-114.613281-256-256 114.613281-256 256-256 256 114.613281 256 256zm0 0" fill="#ffc107"/><path d="m190.230469 128.726562c-15.660157-2.539062-31.488281 1.8125-43.4375 11.964844-3.050781 2.605469-5.78125 5.507813-8.125 8.640625-2.347657-3.132812-5.078125-6.035156-8.128907-8.640625-11.945312-10.152344-27.734374-14.527344-43.414062-11.964844-25.34375 4.136719-44.457031 27.730469-44.457031 56.277344 0 14.25 5.546875 27.648438 15.613281 37.714844l72.832031 72.832031c2.09375 2.070313 4.824219 3.117188 7.554688 3.117188s5.460937-1.046875 7.550781-3.117188l72.832031-72.832031c10.070313-10.089844 15.617188-23.464844 15.617188-39.101562 0-27.160157-19.117188-50.753907-44.4375-54.890626zm0 0" fill="#f44336"/><path d="m424.894531 128.726562c-15.65625-2.539062-31.488281 1.8125-43.410156 11.964844-3.074219 2.605469-5.804687 5.507813-8.152344 8.640625-2.34375-3.132812-5.074219-6.035156-8.125-8.640625-11.949219-10.152344-27.734375-14.527344-43.414062-11.964844-25.34375 4.136719-44.460938 27.730469-44.460938 56.277344 0 14.25 5.546875 27.648438 15.617188 37.714844l72.832031 72.832031c2.089844 2.070313 4.820312 3.117188 7.550781 3.117188s5.460938-1.046875 7.554688-3.117188l72.832031-72.832031c10.066406-10.089844 15.613281-23.464844 15.613281-39.101562 0-27.160157-19.113281-50.753907-44.4375-54.890626zm0 0" fill="#f44336"/><path d="m256 512c-141.164062 0-256-114.835938-256-256s114.835938-256 256-256 256 114.835938 256 256-114.835938 256-256 256zm0-490.667969c-129.386719 0-234.667969 105.28125-234.667969 234.667969s105.28125 234.667969 234.667969 234.667969 234.667969-105.28125 234.667969-234.667969-105.28125-234.667969-234.667969-234.667969zm0 0"/><path d="m256 405.332031c-51.070312 0-98.046875-25.769531-125.71875-68.90625-3.175781-4.96875-1.726562-11.5625 3.222656-14.742187 4.886719-3.199219 11.542969-1.769532 14.71875 3.222656 23.746094 36.992188 64.023438 59.09375 107.777344 59.09375s84.03125-22.101562 107.753906-59.09375c3.179688-4.96875 9.835938-6.398438 14.722656-3.222656 4.949219 3.179687 6.417969 9.773437 3.21875 14.742187-27.648437 43.136719-74.625 68.90625-125.695312 68.90625zm0 0"/><path d="m138.667969 298.667969c-2.730469 0-5.460938-1.046875-7.554688-3.117188l-72.832031-72.832031c-10.066406-10.089844-15.613281-23.488281-15.613281-37.738281 0-28.542969 19.113281-52.136719 44.457031-56.277344 15.574219-2.472656 31.488281 1.8125 43.414062 11.988281 3.050782 2.605469 5.78125 5.507813 8.128907 8.640625 2.34375-3.132812 5.074219-6.035156 8.125-8.640625 11.925781-10.132812 27.863281-14.441406 43.414062-11.964844 25.34375 4.136719 44.460938 27.710938 44.460938 54.890626 0 15.613281-5.546875 29.011718-15.617188 39.101562l-72.832031 72.832031c-2.089844 2.070313-4.820312 3.117188-7.550781 3.117188zm-42.625-149.335938c-1.8125 0-3.648438.152344-5.503907.449219-15.125 2.453125-26.539062 17.003906-26.539062 33.835938 0 9.917968 3.328125 17.960937 9.367188 24l65.300781 65.300781 65.300781-65.300781c6.035156-6.039063 9.363281-14.082032 9.363281-22.636719 0-18.195313-11.410156-32.746094-26.539062-35.199219-9.597657-1.558594-18.921875.980469-26.195313 7.167969-7.167968 6.101562-11.265625 14.996093-11.265625 24.382812 0 5.890625-4.777343 10.667969-10.664062 10.667969-5.890625 0-10.667969-4.777344-10.667969-10.667969 0-9.386719-4.097656-18.28125-11.265625-24.382812-5.886719-4.992188-13.097656-7.617188-20.691406-7.617188zm0 0"/><path d="m373.332031 298.667969c-2.730469 0-5.460937-1.046875-7.550781-3.117188l-72.832031-72.832031c-10.070313-10.089844-15.617188-23.488281-15.617188-37.738281 0-28.542969 19.117188-52.136719 44.460938-56.277344 15.613281-2.472656 31.488281 1.8125 43.414062 11.988281 3.050781 2.605469 5.78125 5.507813 8.125 8.640625 2.347657-3.132812 5.078125-6.035156 8.128907-8.640625 11.96875-10.152344 27.882812-14.441406 43.414062-11.988281 25.34375 4.160156 44.457031 27.734375 44.457031 54.914063 0 15.613281-5.546875 29.011718-15.613281 39.101562l-72.832031 72.832031c-2.09375 2.070313-4.824219 3.117188-7.554688 3.117188zm-42.621093-149.335938c-1.816407 0-3.648438.152344-5.503907.449219-15.128906 2.453125-26.539062 17.003906-26.539062 33.835938 0 9.917968 3.328125 17.960937 9.363281 24l65.300781 65.300781 65.300781-65.300781c6.039063-6.039063 9.367188-14.082032 9.367188-22.636719 0-18.195313-11.414062-32.746094-26.539062-35.199219-9.597657-1.558594-18.921876.980469-26.195313 7.167969-7.167969 6.101562-11.265625 14.996093-11.265625 24.382812 0 5.890625-4.777344 10.667969-10.667969 10.667969-5.886719 0-10.664062-4.777344-10.664062-10.667969 0-9.386719-4.097657-18.28125-11.265625-24.382812-5.886719-4.992188-13.097656-7.617188-20.691406-7.617188zm0 0"/></svg>