<svg height="512pt" viewBox="0 0 512 512" width="512pt" xmlns="http://www.w3.org/2000/svg"><path d="m491.308594 155.15625c-40.214844-94.25-132.609375-155.15625-235.308594-155.15625s-195.09375 60.90625-235.308594 155.15625c-2.324218 5.398438 1.6875 12.332031 7.105469 14.636719 4.054687 1.769531 8.894531.746093 11.988281-2.476563.578125-.640625 59.328125-60.648437 216.214844-60.648437s215.636719 60.007812 216.191406 60.605469c2.046875 2.199218 4.90625 3.394531 7.808594 3.394531 1.40625 0 2.859375-.300781 4.203125-.875l1.492187-.640625c5.417969-2.324219 7.9375-8.597656 5.613282-13.996094zm0 0" fill="#ffc107"/><path d="m491.285156 155.113281c-1.152344-2.664062-3.625-4.480469-6.507812-5.332031-14.292969-13.121094-79.808594-64.449219-228.777344-64.449219-145.960938 0-211.796875 49.28125-227.863281 63.617188-3.199219.726562-6.035157 2.921875-7.445313 6.164062-9.148437 21.164063-15.359375 43.882813-18.492187 67.480469-.554688 4.394531 1.621093 8.660156 5.480469 10.773438 1.621093.871093 3.371093 1.300781 5.121093 1.300781 2.472657 0 4.925781-.875 6.910157-2.539063.726562-.621094 74.007812-61.460937 236.289062-61.460937 161.472656 0 235.585938 60.863281 236.308594 61.480469 3.371094 2.816406 8.171875 3.308593 11.988281 1.21875 3.882813-2.136719 6.039063-6.402344 5.484375-10.753907-3.136719-23.617187-9.34375-46.316406-18.496094-67.5zm0 0" fill="#455a64"/><path d="m509.78125 222.507812c-.382812-2.5625-1.664062-4.929687-3.648438-6.636718-3.199218-2.707032-80.042968-66.539063-250.132812-66.539063s-246.933594 63.832031-250.132812 66.539063c-1.984376 1.6875-3.265626 4.054687-3.648438 6.636718-1.492188 10.621094-2.21875 21.546876-2.21875 33.492188 0 141.164062 114.835938 256 256 256s256-114.835938 256-256c0-11.945312-.726562-22.871094-2.21875-33.492188zm0 0" fill="#ffc107"/><path d="m192 224c0 17.671875-14.328125 32-32 32s-32-14.328125-32-32 14.328125-32 32-32 32 14.328125 32 32zm0 0" fill="#795548"/><path d="m384 224c0 17.671875-14.328125 32-32 32s-32-14.328125-32-32 14.328125-32 32-32 32 14.328125 32 32zm0 0" fill="#795548"/><path d="m410.625 391.550781c-20.972656-68.328125-83.117188-114.21875-154.625-114.21875s-133.652344 45.890625-154.625 114.21875c-1 3.222657-.40625 6.742188 1.601562 9.453125 2.027344 2.730469 5.203126 4.328125 8.574219 4.328125h288.875c3.371094 0 6.570313-1.597656 8.578125-4.328125 2.027344-2.710937 2.621094-6.230468 1.621094-9.453125zm0 0" fill="#f44336"/><path d="m487.550781 355.113281c-2.238281-2.261719-5.652343-3.285156-8.574219-3.09375-3.179687.34375-6.058593 2.050781-7.828124 4.714844l-42.667969 64c-2.390625 3.605469-2.390625 8.300781.042969 11.90625 6.441406 9.535156 2.859374 45.3125-1.601563 66.472656-.980469 4.628907 1.214844 9.34375 5.355469 11.585938 4.179687 2.28125 9.324218 1.472656 12.628906-1.835938l13.78125-13.78125 13.78125 13.78125c2.007812 2.027344 4.738281 3.136719 7.53125 3.136719.980469 0 1.941406-.128906 2.902344-.40625 3.730468-1.066406 6.589844-4.03125 7.488281-7.785156 4.671875-19.671875 26.558594-119.273438-2.839844-148.695313zm0 0" fill="#455a64"/><path d="m256 512c-141.164062 0-256-114.835938-256-256s114.835938-256 256-256 256 114.835938 256 256-114.835938 256-256 256zm0-490.667969c-129.386719 0-234.667969 105.28125-234.667969 234.667969s105.28125 234.667969 234.667969 234.667969 234.667969-105.28125 234.667969-234.667969-105.28125-234.667969-234.667969-234.667969zm0 0"/><path d="m160 256c-17.644531 0-32-14.355469-32-32s14.355469-32 32-32 32 14.355469 32 32-14.355469 32-32 32zm0-42.667969c-5.886719 0-10.667969 4.78125-10.667969 10.667969s4.78125 10.667969 10.667969 10.667969 10.667969-4.78125 10.667969-10.667969-4.78125-10.667969-10.667969-10.667969zm0 0"/><path d="m352 256c-17.644531 0-32-14.355469-32-32s14.355469-32 32-32 32 14.355469 32 32-14.355469 32-32 32zm0-42.667969c-5.886719 0-10.667969 4.78125-10.667969 10.667969s4.78125 10.667969 10.667969 10.667969 10.667969-4.78125 10.667969-10.667969-4.78125-10.667969-10.667969-10.667969zm0 0"/><path d="m400.449219 405.332031h-288.898438c-3.390625 0-6.570312-1.597656-8.574219-4.328125-2.007812-2.710937-2.601562-6.230468-1.621093-9.453125 21.011719-68.328125 83.15625-114.21875 154.644531-114.21875s133.632812 45.890625 154.644531 114.21875c.980469 3.222657.40625 6.742188-1.621093 9.453125-2.003907 2.730469-5.183594 4.328125-8.574219 4.328125zm-273.664063-21.332031h258.429688c-21.84375-51.605469-72.105469-85.332031-129.214844-85.332031s-107.371094 33.726562-129.214844 85.332031zm0 0"/><path d="m202.667969 192c-1.109375 0-2.242188-.171875-3.371094-.554688l-64-21.332031c-5.589844-1.855469-8.621094-7.894531-6.742187-13.484375 1.855468-5.589844 7.851562-8.597656 13.484374-6.742187l64 21.335937c5.585938 1.855469 8.59375 7.890625 6.738282 13.480469-1.492188 4.480469-5.652344 7.296875-10.109375 7.296875zm0 0"/><path d="m309.332031 192c-4.457031 0-8.617187-2.816406-10.109375-7.296875-1.855468-5.589844 1.152344-11.625 6.738282-13.480469l64-21.335937c5.65625-1.855469 11.628906 1.152343 13.484374 6.742187 1.855469 5.589844-1.152343 11.628906-6.742187 13.484375l-64 21.332031c-1.128906.382813-2.261719.554688-3.371094.554688zm0 0"/><path d="m480 170.667969c-2.859375 0-5.71875-1.152344-7.808594-3.394531-.53125-.574219-59.328125-60.605469-216.191406-60.605469s-215.660156 60.03125-216.234375 60.628906c-4.03125 4.289063-10.773437 4.480469-15.0625.445313-4.265625-4.007813-4.523437-10.707032-.511719-15.015626 2.5625-2.753906 64.640625-67.394531 231.808594-67.394531s229.246094 64.640625 231.808594 67.394531c4.011718 4.308594 3.777344 11.070313-.535156 15.082032-2.066407 1.917968-4.671876 2.859375-7.273438 2.859375zm0 0"/><path d="m499.242188 234.667969c-2.429688 0-4.886719-.832031-6.867188-2.519531-.726562-.617188-74.988281-61.480469-236.375-61.480469s-235.648438 60.863281-236.375 61.480469c-4.5 3.777343-11.21875 3.242187-15.015625-1.277344-3.796875-4.480469-3.242187-11.179688 1.234375-15 3.179688-2.707032 80.195312-66.539063 250.15625-66.539063s246.976562 63.832031 250.175781 66.539063c4.480469 3.820312 5.011719 10.519531 1.238281 15-2.113281 2.496094-5.140624 3.796875-8.171874 3.796875zm0 0"/><path d="m480 512c-2.792969 0-5.503906-1.109375-7.550781-3.113281l-13.78125-13.804688-13.78125 13.78125c-3.328125 3.308594-8.449219 4.117188-12.628907 1.835938-4.140624-2.242188-6.316406-6.957031-5.355468-11.585938 4.457031-21.160156 8.042968-56.9375 1.597656-66.472656-3.285156-4.886719-2.003906-11.519531 2.882812-14.804687 4.90625-3.328126 11.519532-2.007813 14.804688 2.855468 7.636719 11.328125 7.976562 32.320313 6.398438 50.5625 4.160156-2.878906 9.921874-2.496094 13.632812 1.214844l7.445312 7.46875c8.128907-42.773438 12.203126-96.320312-1.195312-109.71875-4.160156-4.160156-4.160156-10.921875 0-15.082031 4.160156-4.160157 10.921875-4.160157 15.082031 0 29.398438 29.417969 7.53125 129.023437 2.839844 148.691406-.898437 3.757813-3.757813 6.722656-7.46875 7.789063-.980469.253906-1.960937.382812-2.921875.382812zm0 0"/></svg>