<svg height="512pt" viewBox="0 0 512 512" width="512pt" xmlns="http://www.w3.org/2000/svg"><path d="m512 256c0 141.386719-114.613281 256-256 256s-256-114.613281-256-256 114.613281-256 256-256 256 114.613281 256 256zm0 0" fill="#ffc107"/><path d="m365.011719 334.871094c-2.109375-1.921875-5.824219-4.203125-11.773438-4.203125-7.511719 0-12.4375-4.332031-20.503906-11.96875-9.40625-8.917969-21.140625-20.03125-41.386719-20.03125-16.746094 0-28.09375 5.695312-35.347656 12.542969-7.253906-6.847657-18.601562-12.542969-35.347656-12.542969-20.246094 0-31.980469 11.113281-41.386719 20.03125-8.085937 7.636719-13.015625 11.96875-20.523437 11.96875-5.929688 0-9.664063 2.28125-11.777344 4.203125-3.15625 2.898437-4.90625 7.058594-4.90625 11.730468 0 25.175782 57.195312 80.066407 113.941406 80.066407s113.941406-54.890625 113.941406-80.066407c0-4.671874-1.75-8.832031-4.929687-11.730468zm0 0" fill="#f44336"/><path d="m256 512c-141.164062 0-256-114.835938-256-256s114.835938-256 256-256 256 114.835938 256 256-114.835938 256-256 256zm0-490.667969c-129.386719 0-234.667969 105.28125-234.667969 234.667969s105.28125 234.667969 234.667969 234.667969 234.667969-105.28125 234.667969-234.667969-105.28125-234.667969-234.667969-234.667969zm0 0"/><path d="m181.332031 213.332031c-5.886719 0-10.664062-4.777343-10.664062-10.664062 0-5.890625-4.78125-10.667969-10.667969-10.667969s-10.667969 4.777344-10.667969 10.667969c0 5.886719-4.777343 10.664062-10.664062 10.664062-5.890625 0-10.667969-4.777343-10.667969-10.664062 0-17.644531 14.355469-32 32-32s32 14.355469 32 32c0 5.886719-4.777344 10.664062-10.667969 10.664062zm0 0"/><path d="m373.332031 213.332031c-5.886719 0-10.664062-4.777343-10.664062-10.664062 0-5.890625-4.78125-10.667969-10.667969-10.667969s-10.667969 4.777344-10.667969 10.667969c0 5.886719-4.777343 10.664062-10.664062 10.664062-5.890625 0-10.667969-4.777343-10.667969-10.664062 0-17.644531 14.355469-32 32-32s32 14.355469 32 32c0 5.886719-4.777344 10.664062-10.667969 10.664062zm0 0"/><path d="m256 426.667969c-56.746094 0-113.921875-54.890625-113.921875-80.066407 0-4.648437 1.75-8.832031 4.910156-11.730468 2.089844-1.921875 5.824219-4.203125 11.773438-4.203125 7.511719 0 12.4375-4.332031 20.480469-11.96875 9.429687-8.917969 21.140624-20.03125 41.386718-20.03125 30.933594 0 43.476563 19.390625 45.78125 29.671875 1.300782 5.761718-2.324218 11.457031-8.0625 12.757812-5.695312 1.175782-11.328125-2.261718-12.695312-7.890625-.445313-1.515625-4.414063-13.207031-25.023438-13.207031-11.734375 0-18.347656 6.25-26.707031 14.1875-7.574219 7.1875-16.023437 15.1875-28.652344 17.300781 8.980469 16.191407 48.789063 53.84375 90.730469 53.84375 5.886719 0 10.667969 4.78125 10.667969 10.667969s-4.78125 10.667969-10.667969 10.667969zm0 0"/><path d="m256 426.667969c-5.886719 0-10.667969-4.78125-10.667969-10.667969s4.78125-10.667969 10.667969-10.667969c41.941406 0 81.75-37.671875 90.730469-53.867187-12.652344-2.109375-21.097657-10.109375-28.671875-17.277344-8.339844-7.9375-14.953125-14.1875-26.6875-14.1875-20.777344 0-24.640625 11.882812-25.003906 13.226562-1.535157 5.589844-7.296876 9.214844-12.90625 7.636719-5.609376-1.386719-9.128907-6.890625-7.851563-12.542969 2.285156-10.261718 14.828125-29.652343 45.761719-29.652343 20.246094 0 31.976562 11.113281 41.386718 20.03125 8.0625 7.617187 12.992188 11.96875 20.480469 11.96875 5.929688 0 9.683594 2.28125 11.773438 4.203125 3.179687 2.898437 4.910156 7.082031 4.910156 11.730468 0 25.175782-57.175781 80.066407-113.921875 80.066407zm0 0"/><path d="m256 384c-46.25 0-100.4375-32.148438-102.71875-33.515625-5.058594-3.027344-6.699219-9.554687-3.671875-14.632813 3.007813-5.035156 9.578125-6.722656 14.636719-3.671874.511718.300781 51.457031 30.488281 91.753906 30.488281s91.242188-30.1875 91.753906-30.488281c5.078125-3.070313 11.605469-1.363282 14.636719 3.671874 3.027344 5.054688 1.386719 11.605469-3.671875 14.632813-2.28125 1.367187-56.46875 33.515625-102.71875 33.515625zm0 0"/></svg>