<svg height="512pt" viewBox="0 0 512 512" width="512pt" xmlns="http://www.w3.org/2000/svg"><path d="m512 256c0 141.386719-114.613281 256-256 256s-256-114.613281-256-256 114.613281-256 256-256 256 114.613281 256 256zm0 0" fill="#ffc107"/><path d="m256 512c-141.164062 0-256-114.835938-256-256s114.835938-256 256-256 256 114.835938 256 256-114.835938 256-256 256zm0-490.667969c-129.386719 0-234.667969 105.28125-234.667969 234.667969s105.28125 234.667969 234.667969 234.667969 234.667969-105.28125 234.667969-234.667969-105.28125-234.667969-234.667969-234.667969zm0 0"/><path d="m181.332031 192h-64c-5.886719 0-10.664062-4.777344-10.664062-10.667969 0-5.886719 4.777343-10.664062 10.664062-10.664062h64c5.890625 0 10.667969 4.777343 10.667969 10.664062 0 5.890625-4.777344 10.667969-10.667969 10.667969zm0 0"/><path d="m394.667969 192h-64c-5.890625 0-10.667969-4.777344-10.667969-10.667969 0-5.886719 4.777344-10.664062 10.667969-10.664062h64c5.886719 0 10.664062 4.777343 10.664062 10.664062 0 5.890625-4.777343 10.667969-10.664062 10.667969zm0 0"/><path d="m330.667969 426.667969c-1.496094 0-3.007813-.320313-4.394531-.941407-17.410157-7.890624-48.984376-20.394531-59.605469-20.394531-5.890625 0-10.667969-4.777343-10.667969-10.664062 0-5.890625 4.777344-10.667969 10.667969-10.667969 12.351562 0 35.496093 8.46875 51.730469 15.125-1.171876-5.71875-3.050782-10.945312-5.671876-13.632812-1.21875-1.234376-2.242187-1.492188-3.394531-1.492188-5.886719 0-10.664062-4.777344-10.664062-10.667969 0-5.886719 4.777343-10.664062 10.664062-10.664062 1.152344 0 2.175781-.257813 3.394531-1.496094 2.644532-2.6875 4.5-7.914063 5.671876-13.628906-16.234376 6.65625-39.378907 15.125-51.730469 15.125-5.890625 0-10.667969-4.78125-10.667969-10.667969s4.777344-10.667969 10.667969-10.667969c10.066406 0 40.894531-11.925781 59.605469-20.394531 3.242187-1.449219 7.058593-1.214844 10.089843.707031 3.027344 1.898438 4.90625 5.226563 4.96875 8.808594.066407 3.007813.234375 28.289063-10.964843 42.878906 11.199218 14.59375 11.03125 39.875 10.964843 42.882813-.0625 3.582031-1.941406 6.890625-4.96875 8.808594-1.730469 1.089843-3.710937 1.644531-5.695312 1.644531zm0 0"/></svg>