<svg height="512pt" viewBox="0 0 512 512" width="512pt" xmlns="http://www.w3.org/2000/svg"><path d="m512 256c0 141.386719-114.613281 256-256 256s-256-114.613281-256-256 114.613281-256 256-256 256 114.613281 256 256zm0 0" fill="#ffc107"/><path d="m348.394531 408.726562-245.121093-245.121093c-2.386719-2.390625-5.824219-3.476563-9.128907-3.007813-3.351562.511719-6.25 2.558594-7.828125 5.546875-39.722656 74.945313-26.113281 165.632813 33.917969 225.621094 37.097656 37.097656 85.910156 56.46875 135.507813 56.46875 30.613281 0 61.527343-7.402344 90.136718-22.570313 2.984375-1.578124 5.03125-4.480468 5.546875-7.828124.511719-3.351563-.640625-6.722657-3.03125-9.109376zm0 0" fill="#fafafa"/><path d="m256 511.871094c-65.558594 0-131.113281-24.9375-181.011719-74.859375-99.820312-99.816407-99.820312-262.226563 0-362.046875 99.839844-99.816406 262.207031-99.816406 362.046875 0 99.816406 99.820312 99.816406 262.230468 0 362.046875-49.921875 49.921875-115.476562 74.859375-181.035156 74.859375zm0-490.429688c-60.097656 0-120.191406 22.867188-165.929688 68.605469-91.5 91.5-91.5 240.386719 0 331.882813 91.496094 91.5 240.382813 91.5 331.882813 0 91.496094-91.496094 91.496094-240.382813 0-331.882813-45.761719-45.714844-105.878906-68.605469-165.953125-68.605469zm0 0"/><path d="m255.722656 448.257812c-49.578125 0-98.390625-19.371093-135.507812-56.472656-60.011719-59.988281-73.644532-150.675781-33.921875-225.621094 1.578125-2.984374 4.480469-5.035156 7.828125-5.546874 3.308594-.445313 6.722656.621093 9.132812 3.007812l245.121094 245.121094c2.386719 2.390625 3.496094 5.78125 3.007812 9.132812-.492187 3.347656-2.5625 6.25-5.546874 7.828125-28.589844 15.144531-59.5 22.550781-90.113282 22.550781zm-156.863281-258.925781c-27.242187 63.808594-13.398437 137.496094 36.457031 187.351563 49.855469 49.855468 123.519532 63.679687 187.328125 36.457031zm0 0"/><path d="m240.917969 176.148438c-3.90625 0-7.660157-2.152344-9.535157-5.886719l-30.167968-60.351563c-2.621094-5.269531-.511719-11.671875 4.757812-14.316406 5.292969-2.601562 11.671875-.511719 14.316406 4.78125l30.164063 60.351562c2.625 5.269532.492187 11.667969-4.777344 14.3125-1.539062.746094-3.160156 1.109376-4.757812 1.109376zm0 0"/><path d="m406.847656 311.914062c-1.601562 0-3.222656-.363281-4.777344-1.128906l-60.351562-30.167968c-5.269531-2.621094-7.402344-9.042969-4.78125-14.3125 2.667969-5.269532 9.046875-7.359376 14.316406-4.78125l60.351563 30.167968c5.269531 2.625 7.402343 9.042969 4.777343 14.3125-1.855468 3.757813-5.628906 5.910156-9.535156 5.910156zm0 0"/></svg>