<svg height="512pt" viewBox="0 0 512 512" width="512pt" xmlns="http://www.w3.org/2000/svg"><path d="m512 256c0 141.386719-114.613281 256-256 256s-256-114.613281-256-256 114.613281-256 256-256 256 114.613281 256 256zm0 0" fill="#ffc107"/><path d="m437.910156 302.996094c-2.007812-2.730469-5.207031-4.328125-8.578125-4.328125h-346.664062c-3.371094 0-6.570313 1.597656-8.578125 4.328125-2.003906 2.710937-2.601563 6.230468-1.597656 9.453125 24.875 81.085937 98.644531 135.550781 183.507812 135.550781s158.632812-54.464844 183.53125-135.550781c.980469-3.222657.382812-6.742188-1.621094-9.453125zm0 0" fill="#fafafa"/><path d="m127.210938 177.300781c-3.285157-8-16.449219-8-19.753907 0-5.183593 12.695313-22.125 55.148438-22.125 68.03125 0 17.644531 14.359375 32 32 32 17.644531 0 32-14.355469 32-32 0-12.882812-16.9375-55.335937-22.121093-68.03125zm0 0" fill="#2196f3"/><path d="m256 512c-141.164062 0-256-114.835938-256-256s114.835938-256 256-256 256 114.835938 256 256-114.835938 256-256 256zm0-490.667969c-129.386719 0-234.667969 105.28125-234.667969 234.667969s105.28125 234.667969 234.667969 234.667969 234.667969-105.28125 234.667969-234.667969-105.28125-234.667969-234.667969-234.667969zm0 0"/><path d="m256 448c-84.863281 0-158.613281-54.464844-183.53125-135.550781-.980469-3.222657-.40625-6.742188 1.621094-9.453125 2.007812-2.730469 5.183594-4.328125 8.578125-4.328125h346.664062c3.394531 0 6.570313 1.597656 8.578125 4.328125 2.003906 2.710937 2.601563 6.230468 1.621094 9.453125-24.917969 81.085937-98.667969 135.550781-183.53125 135.550781zm-158.25-128c25.855469 64.382812 87.742188 106.667969 158.25 106.667969s132.394531-42.285157 158.25-106.667969zm0 0"/><path d="m181.332031 192h-64c-5.886719 0-10.664062-4.777344-10.664062-10.667969 0-5.886719 4.777343-10.664062 10.664062-10.664062h64c5.890625 0 10.667969 4.777343 10.667969 10.664062 0 5.890625-4.777344 10.667969-10.667969 10.667969zm0 0"/><path d="m394.667969 192h-64c-5.890625 0-10.667969-4.777344-10.667969-10.667969 0-5.886719 4.777344-10.664062 10.667969-10.664062h64c5.886719 0 10.664062 4.777343 10.664062 10.664062 0 5.890625-4.777343 10.667969-10.664062 10.667969zm0 0"/><path d="m117.332031 277.332031c-17.640625 0-32-14.355469-32-32 0-12.882812 16.941407-55.335937 22.125-68.03125 3.261719-8.019531 16.46875-8.019531 19.753907 0 5.183593 12.695313 22.121093 55.148438 22.121093 68.03125 0 17.644531-14.355469 32-32 32zm0-66.558593c-5.972656 16.171874-10.621093 30.484374-10.664062 34.558593 0 5.890625 4.777343 10.667969 10.664062 10.667969 5.867188 0 10.667969-4.777344 10.667969-10.667969-.0625-4.074219-4.691406-18.386719-10.667969-34.558593zm0 0"/></svg>