<svg height="512pt" viewBox="0 0 512 512" width="512pt" xmlns="http://www.w3.org/2000/svg"><path d="m512 256c0 141.386719-114.613281 256-256 256s-256-114.613281-256-256 114.613281-256 256-256 256 114.613281 256 256zm0 0" fill="#ffc107"/><path d="m437.910156 302.996094c-2.007812-2.730469-5.207031-4.328125-8.578125-4.328125h-346.664062c-3.371094 0-6.570313 1.597656-8.578125 4.328125-2.003906 2.710937-2.601563 6.230468-1.597656 9.453125 24.875 81.085937 98.644531 135.550781 183.507812 135.550781s158.632812-54.464844 183.53125-135.550781c.980469-3.222657.382812-6.742188-1.621094-9.453125zm0 0" fill="#fafafa"/><path d="m384 449.835938v-268.503907c0-5.886719-4.777344-10.664062-10.667969-10.664062h-42.664062c-5.890625 0-10.667969 4.777343-10.667969 10.664062v268.503907c-12.414062 4.394531-21.332031 16.253906-21.332031 30.164062 0 17.644531 14.355469 32 32 32h42.664062c17.644531 0 32-14.355469 32-32 0-13.910156-8.917969-25.769531-21.332031-30.164062zm0 0" fill="#2196f3"/><path d="m192 449.835938v-268.503907c0-5.886719-4.777344-10.664062-10.667969-10.664062h-42.664062c-5.890625 0-10.667969 4.777343-10.667969 10.664062v268.503907c-12.414062 4.394531-21.332031 16.253906-21.332031 30.164062 0 17.644531 14.355469 32 32 32h42.664062c17.644531 0 32-14.355469 32-32 0-13.910156-8.917969-25.769531-21.332031-30.164062zm0 0" fill="#2196f3"/><path d="m386.410156 474.21875c-3.539062 0-7.019531-1.769531-9.042968-4.972656-3.136719-4.988282-1.644532-11.582032 3.347656-14.695313 68.84375-43.394531 109.953125-117.589843 109.953125-198.550781 0-129.386719-105.28125-234.667969-234.667969-234.667969s-234.667969 105.28125-234.667969 234.667969c0 80.960938 41.109375 155.15625 109.953125 198.527344 4.972656 3.117187 6.484375 9.707031 3.347656 14.699218-3.132812 4.949219-9.703124 6.527344-14.71875 3.328126-75.070312-47.253907-119.914062-128.214844-119.914062-216.554688 0-141.164062 114.835938-256 256-256s256 114.835938 256 256c0 88.339844-44.84375 169.300781-119.914062 216.554688-1.769532 1.128906-3.734376 1.664062-5.675782 1.664062zm0 0"/><path d="m256 512c-19.945312 0-40.597656-2.582031-61.355469-7.703125-5.714843-1.386719-9.214843-7.1875-7.808593-12.882813 1.410156-5.738281 7.210937-9.132812 12.90625-7.808593 38.210937 9.40625 74.304687 9.40625 112.515624 0 5.738282-1.324219 11.496094 2.089843 12.90625 7.808593 1.40625 5.714844-2.09375 11.496094-7.808593 12.882813-20.757813 5.121094-41.410157 7.703125-61.355469 7.703125zm0 0"/><path d="m373.332031 512h-42.664062c-17.644531 0-32-14.355469-32-32 0-13.910156 8.917969-25.769531 21.332031-30.164062v-268.503907c0-5.886719 4.777344-10.664062 10.667969-10.664062 5.886719 0 10.664062 4.777343 10.664062 10.664062v277.335938c0 5.886719-4.777343 10.664062-10.664062 10.664062-5.890625 0-10.667969 4.800781-10.667969 10.667969s4.777344 10.667969 10.667969 10.667969h42.664062c5.890625 0 10.667969-4.800781 10.667969-10.667969s-4.777344-10.667969-10.667969-10.667969c-5.886719 0-10.664062-4.777343-10.664062-10.664062v-277.335938c0-5.886719 4.777343-10.664062 10.664062-10.664062 5.890625 0 10.667969 4.777343 10.667969 10.664062v268.503907c12.414062 4.394531 21.332031 16.253906 21.332031 30.164062 0 17.644531-14.355469 32-32 32zm0 0"/><path d="m181.332031 512h-42.664062c-17.644531 0-32-14.355469-32-32 0-13.910156 8.917969-25.769531 21.332031-30.164062v-268.503907c0-5.886719 4.777344-10.664062 10.667969-10.664062 5.886719 0 10.664062 4.777343 10.664062 10.664062v277.335938c0 5.886719-4.777343 10.664062-10.664062 10.664062-5.890625 0-10.667969 4.800781-10.667969 10.667969s4.777344 10.667969 10.667969 10.667969h42.664062c5.890625 0 10.667969-4.800781 10.667969-10.667969s-4.777344-10.667969-10.667969-10.667969c-5.886719 0-10.664062-4.777343-10.664062-10.664062v-277.335938c0-5.886719 4.777343-10.664062 10.664062-10.664062 5.890625 0 10.667969 4.777343 10.667969 10.664062v268.503907c12.414062 4.394531 21.332031 16.253906 21.332031 30.164062 0 17.644531-14.355469 32-32 32zm0 0"/><path d="m138.667969 404.800781c-2.453125 0-4.90625-.832031-6.914063-2.539062-28.074218-23.914063-48.574218-54.953125-59.285156-89.792969-.980469-3.222656-.40625-6.742188 1.621094-9.449219 2.007812-2.753906 5.183594-4.351562 8.578125-4.351562h56c5.886719 0 10.664062 4.777343 10.664062 10.664062 0 5.890625-4.777343 10.667969-10.664062 10.667969h-40.898438c10.261719 25.34375 26.605469 47.957031 47.808594 66.003906 4.480469 3.820313 5.015625 10.5625 1.214844 15.042969-2.109375 2.472656-5.117188 3.753906-8.125 3.753906zm0 0"/><path d="m373.332031 404.800781c-3.007812 0-6.015625-1.28125-8.125-3.753906-3.820312-4.480469-3.265625-11.222656 1.214844-15.042969 21.203125-18.046875 37.546875-40.636718 47.808594-66.003906h-40.898438c-5.886719 0-10.664062-4.777344-10.664062-10.667969 0-5.886719 4.777343-10.664062 10.664062-10.664062h56c3.394531 0 6.570313 1.597656 8.578125 4.328125 2.003906 2.710937 2.601563 6.230468 1.621094 9.453125-10.710938 34.859375-31.210938 65.898437-59.285156 89.789062-2.007813 1.730469-4.460938 2.5625-6.914063 2.5625zm0 0"/><path d="m256 448c-27.414062 0-54.015625-5.761719-79.0625-17.109375-5.351562-2.410156-7.742188-8.746094-5.332031-14.101563 2.433593-5.355468 8.769531-7.722656 14.121093-5.3125 44.566407 20.160157 95.980469 20.160157 140.546876 0 5.351562-2.410156 11.6875-.042968 14.121093 5.3125 2.433594 5.355469.042969 11.691407-5.332031 14.101563-25.046875 11.347656-51.648438 17.109375-79.0625 17.109375zm0 0"/><path d="m330.667969 320h-149.335938c-5.886719 0-10.664062-4.777344-10.664062-10.667969 0-5.886719 4.777343-10.664062 10.664062-10.664062h149.335938c5.886719 0 10.664062 4.777343 10.664062 10.664062 0 5.890625-4.777343 10.667969-10.664062 10.667969zm0 0"/><path d="m202.667969 192c-5.890625 0-10.667969-4.777344-10.667969-10.667969 0-17.640625-14.355469-32-32-32s-32 14.359375-32 32c0 5.890625-4.777344 10.667969-10.667969 10.667969-5.886719 0-10.664062-4.777344-10.664062-10.667969 0-29.394531 23.933593-53.332031 53.332031-53.332031s53.332031 23.9375 53.332031 53.332031c0 5.890625-4.777343 10.667969-10.664062 10.667969zm0 0"/><path d="m394.667969 192c-5.890625 0-10.667969-4.777344-10.667969-10.667969 0-17.640625-14.355469-32-32-32s-32 14.359375-32 32c0 5.890625-4.777344 10.667969-10.667969 10.667969-5.886719 0-10.664062-4.777344-10.664062-10.667969 0-29.394531 23.933593-53.332031 53.332031-53.332031s53.332031 23.9375 53.332031 53.332031c0 5.890625-4.777343 10.667969-10.664062 10.667969zm0 0"/></svg>