<svg height="512pt" viewBox="0 0 512 512" width="512pt" xmlns="http://www.w3.org/2000/svg"><path d="m512 256c0 141.386719-114.613281 256-256 256s-256-114.613281-256-256 114.613281-256 256-256 256 114.613281 256 256zm0 0" fill="#ffc107"/><path d="m256 512c-141.164062 0-256-114.835938-256-256s114.835938-256 256-256 256 114.835938 256 256-114.835938 256-256 256zm0-490.667969c-129.386719 0-234.667969 105.28125-234.667969 234.667969s105.28125 234.667969 234.667969 234.667969 234.667969-105.28125 234.667969-234.667969-105.28125-234.667969-234.667969-234.667969zm0 0"/><path d="m256 405.332031c-51.070312 0-98.070312-25.769531-125.71875-68.90625-3.175781-4.949219-1.726562-11.5625 3.222656-14.71875 4.886719-3.179687 11.519532-1.769531 14.71875 3.222657 23.746094 36.992187 64.023438 59.070312 107.777344 59.070312s84.03125-22.078125 107.753906-59.09375c3.179688-4.96875 9.835938-6.398438 14.722656-3.222656 4.949219 3.160156 6.417969 9.773437 3.21875 14.722656-27.625 43.15625-74.625 68.925781-125.695312 68.925781zm0 0"/><path d="m138.625 256c-28.671875 0-51.050781-12.332031-53.207031-29.3125-.746094-5.84375 3.394531-11.179688 9.238281-11.925781 5.675781-.722657 11.179688 3.394531 11.945312 9.238281.386719 3.113281 12.074219 10.667969 32.023438 10.667969 21.738281 0 32.042969-8.554688 32.042969-10.667969 0-.0625-.363281-6.699219-31.148438-10.496094l-2.261719-.277344c-15.59375-1.898437-51.925781-6.335937-51.925781-31.894531 0-18.238281 22.933594-32 53.378907-32 28.671874 0 51.050781 12.332031 53.203124 29.292969.746094 5.84375-3.390624 11.175781-9.238281 11.925781-5.78125.617188-11.175781-3.394531-11.945312-9.238281-.382813-3.09375-12.074219-10.644531-32.019531-10.644531-20.695313 0-32.042969 8-32.042969 10.664062 0 .066407.363281 6.699219 31.253906 10.476563.0625 0 2.195313.277344 2.214844.277344 15.640625 1.941406 51.863281 6.398437 51.863281 31.914062 0 18.238281-22.933594 32-53.375 32zm0 0"/><path d="m138.667969 277.332031c-5.890625 0-10.667969-4.777343-10.667969-10.664062v-128c0-5.890625 4.777344-10.667969 10.667969-10.667969 5.886719 0 10.664062 4.777344 10.664062 10.667969v128c0 5.886719-4.777343 10.664062-10.664062 10.664062zm0 0"/><path d="m373.289062 256c-28.671874 0-51.050781-12.332031-53.203124-29.3125-.746094-5.84375 3.390624-11.179688 9.238281-11.925781 5.714843-.722657 11.175781 3.394531 11.945312 9.238281.40625 3.09375 12.097657 10.667969 32.042969 10.667969 21.71875 0 32.019531-8.554688 32.019531-10.667969 0-.0625-.363281-6.699219-31.144531-10.496094l-2.261719-.296875c-15.59375-1.878906-51.925781-6.316406-51.925781-31.875 0-18.238281 22.933594-32 53.375-32 28.671875 0 51.050781 12.332031 53.207031 29.292969.746094 5.84375-3.394531 11.175781-9.238281 11.925781-5.757812.617188-11.179688-3.394531-11.945312-9.238281-.386719-3.09375-12.074219-10.644531-32.023438-10.644531-20.691406 0-32.042969 8-32.042969 10.664062 0 .066407.363281 6.699219 31.253907 10.476563.066406 0 2.199218.277344 2.21875.277344 15.636718 1.941406 51.863281 6.398437 51.863281 31.914062 0 18.238281-22.933594 32-53.378907 32zm0 0"/><path d="m373.332031 277.332031c-5.886719 0-10.664062-4.777343-10.664062-10.664062v-128c0-5.890625 4.777343-10.667969 10.664062-10.667969 5.890625 0 10.667969 4.777344 10.667969 10.667969v128c0 5.886719-4.777344 10.664062-10.667969 10.664062zm0 0"/></svg>