<svg height="512pt" viewBox="0 0 512 512" width="512pt" xmlns="http://www.w3.org/2000/svg"><path d="m512 256c0 141.386719-114.613281 256-256 256s-256-114.613281-256-256 114.613281-256 256-256 256 114.613281 256 256zm0 0" fill="#ffc107"/><path d="m192 181.332031c0 17.675781-14.328125 32-32 32s-32-14.324219-32-32c0-17.671875 14.328125-32 32-32s32 14.328125 32 32zm0 0" fill="#795548"/><path d="m384 181.332031c0 17.675781-14.328125 32-32 32s-32-14.324219-32-32c0-17.671875 14.328125-32 32-32s32 14.328125 32 32zm0 0" fill="#795548"/><path d="m256 512c-141.164062 0-256-114.835938-256-256s114.835938-256 256-256 256 114.835938 256 256-114.835938 256-256 256zm0-490.667969c-129.386719 0-234.667969 105.28125-234.667969 234.667969s105.28125 234.667969 234.667969 234.667969 234.667969-105.28125 234.667969-234.667969-105.28125-234.667969-234.667969-234.667969zm0 0"/><path d="m160 213.332031c-17.644531 0-32-14.355469-32-32 0-17.640625 14.355469-32 32-32s32 14.359375 32 32c0 17.644531-14.355469 32-32 32zm0-42.664062c-5.867188 0-10.667969 4.796875-10.667969 10.664062 0 5.867188 4.800781 10.667969 10.667969 10.667969s10.667969-4.800781 10.667969-10.667969c0-5.867187-4.800781-10.664062-10.667969-10.664062zm0 0"/><path d="m352 213.332031c-17.644531 0-32-14.355469-32-32 0-17.640625 14.355469-32 32-32s32 14.359375 32 32c0 17.644531-14.355469 32-32 32zm0-42.664062c-5.867188 0-10.667969 4.796875-10.667969 10.664062 0 5.867188 4.800781 10.667969 10.667969 10.667969s10.667969-4.800781 10.667969-10.667969c0-5.867187-4.800781-10.664062-10.667969-10.664062zm0 0"/><path d="m160 405.332031c-4.074219 0-7.980469-2.34375-9.75-6.335937-2.386719-5.375.042969-11.6875 5.417969-14.078125l192-85.332031c5.378906-2.371094 11.691406.019531 14.082031 5.417968 2.386719 5.375-.042969 11.6875-5.417969 14.078125l-192 85.332031c-1.410156.621094-2.882812.917969-4.332031.917969zm0 0"/><path d="m352 405.332031c-1.449219 0-2.921875-.296875-4.332031-.917969l-192-85.332031c-5.375-2.390625-7.804688-8.703125-5.417969-14.078125 2.390625-5.398437 8.703125-7.789062 14.082031-5.417968l192 85.332031c5.375 2.390625 7.804688 8.703125 5.417969 14.078125-1.769531 3.992187-5.675781 6.335937-9.75 6.335937zm0 0"/></svg>