<svg height="512pt" viewBox="0 0 512 512" width="512pt" xmlns="http://www.w3.org/2000/svg"><path d="m512 256c0 141.386719-114.613281 256-256 256s-256-114.613281-256-256 114.613281-256 256-256 256 114.613281 256 256zm0 0" fill="#ffc107"/><g fill="#fafafa"><path d="m224 202.667969c0 47.128906-38.203125 85.332031-85.332031 85.332031-47.128907 0-85.335938-38.203125-85.335938-85.332031 0-47.128907 38.207031-85.335938 85.335938-85.335938 47.128906 0 85.332031 38.207031 85.332031 85.335938zm0 0"/><path d="m458.667969 202.667969c0 47.128906-38.207031 85.332031-85.335938 85.332031-47.128906 0-85.332031-38.203125-85.332031-85.332031 0-47.128907 38.203125-85.335938 85.332031-85.335938 47.128907 0 85.335938 38.207031 85.335938 85.335938zm0 0"/><path d="m245.332031 362.667969h-42.664062c-5.890625 0-10.667969 4.777343-10.667969 10.664062v42.667969c0 5.886719 4.777344 10.667969 10.667969 10.667969h42.664062c5.890625 0 10.667969-4.78125 10.667969-10.667969v-42.667969c0-5.886719-4.777344-10.664062-10.667969-10.664062zm0 0"/></g><path d="m170.667969 202.667969c0 17.671875-14.328125 32-32 32-17.675781 0-32-14.328125-32-32 0-17.675781 14.324219-32 32-32 17.671875 0 32 14.324219 32 32zm0 0" fill="#795548"/><path d="m405.332031 202.667969c0 17.671875-14.324219 32-32 32-17.671875 0-32-14.328125-32-32 0-17.675781 14.328125-32 32-32 17.675781 0 32 14.324219 32 32zm0 0" fill="#795548"/><path d="m256 512c-141.164062 0-256-114.835938-256-256s114.835938-256 256-256 256 114.835938 256 256-114.835938 256-256 256zm0-490.667969c-129.386719 0-234.667969 105.28125-234.667969 234.667969s105.28125 234.667969 234.667969 234.667969 234.667969-105.28125 234.667969-234.667969-105.28125-234.667969-234.667969-234.667969zm0 0"/><path d="m138.667969 234.667969c-17.644531 0-32-14.359375-32-32 0-17.644531 14.355469-32 32-32 17.640625 0 32 14.355469 32 32 0 17.640625-14.359375 32-32 32zm0-42.667969c-5.867188 0-10.667969 4.777344-10.667969 10.667969 0 5.886719 4.800781 10.664062 10.667969 10.664062 5.867187 0 10.664062-4.777343 10.664062-10.664062 0-5.890625-4.796875-10.667969-10.664062-10.667969zm0 0"/><path d="m373.332031 234.667969c-17.640625 0-32-14.359375-32-32 0-17.644531 14.359375-32 32-32 17.644531 0 32 14.355469 32 32 0 17.640625-14.355469 32-32 32zm0-42.667969c-5.867187 0-10.664062 4.777344-10.664062 10.667969 0 5.886719 4.796875 10.664062 10.664062 10.664062 5.867188 0 10.667969-4.777343 10.667969-10.664062 0-5.890625-4.800781-10.667969-10.667969-10.667969zm0 0"/><path d="m256 384c-48.191406 0-97.578125-3.667969-125.71875-47.574219-3.175781-4.949219-1.726562-11.5625 3.222656-14.71875 4.886719-3.179687 11.519532-1.769531 14.71875 3.222657 20.246094 31.550781 54.871094 37.738281 107.777344 37.738281s87.53125-6.1875 107.753906-37.761719c3.179688-4.96875 9.835938-6.398438 14.722656-3.222656 4.949219 3.160156 6.417969 9.773437 3.21875 14.722656-28.117187 43.925781-77.503906 47.59375-125.695312 47.59375zm0 0"/><path d="m288 224c-5.886719 0-10.667969-4.777344-10.667969-10.667969 0-5.3125-6.613281-10.664062-21.332031-10.664062s-21.332031 5.351562-21.332031 10.664062c0 5.890625-4.78125 10.667969-10.667969 10.667969s-10.667969-4.777344-10.667969-10.667969c0-15.933593 13.183594-32 42.667969-32s42.667969 16.066407 42.667969 32c0 5.890625-4.78125 10.667969-10.667969 10.667969zm0 0"/><path d="m138.667969 298.667969c-52.929688 0-96-43.074219-96-96 0-52.929688 43.070312-96 96-96 52.925781 0 96 43.070312 96 96 0 52.925781-43.074219 96-96 96zm0-170.667969c-41.175781 0-74.667969 33.492188-74.667969 74.667969 0 41.171875 33.492188 74.664062 74.667969 74.664062 41.171875 0 74.664062-33.492187 74.664062-74.664062 0-41.175781-33.492187-74.667969-74.664062-74.667969zm0 0"/><path d="m373.332031 298.667969c-52.925781 0-96-43.074219-96-96 0-52.929688 43.074219-96 96-96 52.929688 0 96 43.070312 96 96 0 52.925781-43.070312 96-96 96zm0-170.667969c-41.171875 0-74.664062 33.492188-74.664062 74.667969 0 41.171875 33.492187 74.664062 74.664062 74.664062 41.175781 0 74.667969-33.492187 74.667969-74.664062 0-41.175781-33.492188-74.667969-74.667969-74.667969zm0 0"/><path d="m245.332031 426.667969h-42.664062c-5.890625 0-10.667969-4.78125-10.667969-10.667969v-42.667969c0-5.886719 4.777344-10.664062 10.667969-10.664062 5.886719 0 10.664062 4.777343 10.664062 10.664062v32h21.335938v-32c0-5.886719 4.777343-10.664062 10.664062-10.664062 5.890625 0 10.667969 4.777343 10.667969 10.664062v42.667969c0 5.886719-4.777344 10.667969-10.667969 10.667969zm0 0"/></svg>