<svg height="512pt" viewBox="0 0 512.05057 512" width="512pt" xmlns="http://www.w3.org/2000/svg"><path d="m124.316406 450.5625-74.664062-64c-3.136719-2.6875-7.597656-3.347656-11.394532-1.578125-3.773437 1.730469-6.207031 5.527344-6.207031 9.6875 0 13.800781-18.261719 42.578125-29.78125 57.472656-2.1992185 2.835938-2.816406 6.613281-1.644531 10.023438 1.175781 3.394531 3.992188 5.976562 7.488281 6.847656l27.992188 7-12.929688 19.390625c-2.15625 3.222656-2.390625 7.359375-.597656 10.816406 1.769531 3.433594 5.269531 5.652344 9.152344 5.78125.683593.019532 2.046875.042969 3.902343.042969 14.039063 0 57.539063-1.792969 79.46875-23.0625 8.597657-8.320313 12.949219-18.515625 12.949219-30.3125 0-3.09375-1.367187-6.058594-3.734375-8.109375zm0 0" fill="#607d8b"/><path d="m512.050781 256.023438c0 141.386718-114.617187 256-256 256-141.386719 0-255.9999998-114.613282-255.9999998-256 0-141.382813 114.6132808-256.0000005 255.9999998-256.0000005 141.382813 0 256 114.6171875 256 256.0000005zm0 0" fill="#455a64"/><path d="m468.019531 218.777344c-2.089843-3.710938-52.886719-90.773438-211.96875-90.773438s-209.878906 87.0625-211.96875 90.773438c-1.707031 3.007812-1.835937 6.65625-.363281 9.75 1.75 3.753906 44.800781 91.476562 212.332031 91.476562s210.582031-87.722656 212.332031-91.476562c1.449219-3.117188 1.320313-6.742188-.363281-9.75zm0 0" fill="#fafafa"/><path d="m192.050781 224.003906c0 17.671875-14.328125 32-32 32s-32-14.328125-32-32 14.328125-32 32-32 32 14.328125 32 32zm0 0" fill="#607d8b"/><path d="m384.050781 224.003906c0 17.671875-14.328125 32-32 32s-32-14.328125-32-32 14.328125-32 32-32 32 14.328125 32 32zm0 0" fill="#607d8b"/><path d="m256.050781 512.003906c-141.164062 0-255.9999998-114.835937-255.9999998-256 0-141.164062 114.8359378-255.9804685 255.9999998-255.9804685 141.164063 0 256 114.8398435 256 256.0000005 0 141.164062-114.835937 255.980468-256 255.980468zm0-490.644531c-129.386719 0-234.667969 105.257813-234.667969 234.664063 0 129.386718 105.28125 234.667968 234.667969 234.667968s234.667969-105.28125 234.667969-234.667968c0-129.40625-105.28125-234.664063-234.667969-234.664063zm0 0"/><path d="m160.050781 256.023438c-17.644531 0-32-14.355469-32-32 0-17.640626 14.355469-32 32-32 17.640625 0 32 14.335937 32 32 0 17.664062-14.359375 32-32 32zm0-42.664063c-5.867187 0-10.667969 4.777344-10.667969 10.664063 0 5.890624 4.800782 10.667968 10.667969 10.667968 5.867188 0 10.667969-4.800781 10.667969-10.667968 0-5.863282-4.800781-10.664063-10.667969-10.664063zm0 0"/><path d="m352.050781 256.023438c-17.644531 0-32-14.355469-32-32 0-17.640626 14.355469-32 32-32 17.640625 0 32 14.335937 32 32 0 17.664062-14.359375 32-32 32zm0-42.664063c-5.867187 0-10.667969 4.777344-10.667969 10.664063 0 5.890624 4.800782 10.667968 10.667969 10.667968 5.867188 0 10.667969-4.777344 10.667969-10.667968 0-5.886719-4.800781-10.664063-10.667969-10.664063zm0 0"/><path d="m256.050781 320.003906c-167.53125 0-210.582031-87.722656-212.332031-91.457031-1.449219-3.113281-1.320312-6.761719.386719-9.769531 2.066406-3.691406 52.863281-90.753906 211.945312-90.753906s209.878907 87.0625 211.96875 90.773437c1.683594 3.007813 1.832031 6.636719.382813 9.773437-1.769532 3.710938-44.820313 91.433594-212.351563 91.433594zm-190.121093-95.550781c11.304687 17.554687 58.066406 74.21875 190.121093 74.21875 132.203125 0 178.921875-56.769531 190.164063-74.261719-12.605469-17.453125-63.785156-75.050781-190.164063-75.050781-125.484375 0-177.429687 57.832031-190.121093 75.09375zm-12.546876-.429687h.214844zm0 0"/><path d="m35.632812 512.046875c-1.875 0-3.199218-.023437-3.921874-.042969-3.882813-.128906-7.382813-2.324218-9.152344-5.78125-1.773438-3.457031-1.539063-7.574218.597656-10.816406l12.925781-19.390625-27.988281-7c-3.5-.871094-6.316406-3.453125-7.511719-6.847656-1.171875-3.410157-.5546872-7.1875 1.644531-10.023438 11.519532-14.894531 29.78125-43.671875 29.78125-57.472656 0-5.890625 4.777344-10.667969 10.667969-10.667969 5.886719 0 10.664063 4.777344 10.664063 10.667969 0 17.640625-14.632813 42.34375-24.832032 57.449219l27.414063 6.847656c3.371094.855469 6.125 3.265625 7.382813 6.507812 1.257812 3.242188.832031 6.867188-1.089844 9.769532l-9.707032 14.570312c16.640626-1.683594 37.335938-6.058594 47.722657-16.167968 4.4375-4.246094 6.488281-9.027344 6.488281-14.976563 0-5.890625 4.777344-10.667969 10.664062-10.667969 5.890626 0 10.667969 4.777344 10.667969 10.667969 0 11.796875-4.351562 21.992187-12.929687 30.3125-21.949219 21.269531-65.449219 23.0625-79.488282 23.0625zm0 0"/></svg>