<svg height="512pt" viewBox="0 0 512 512" width="512pt" xmlns="http://www.w3.org/2000/svg"><path d="m512 256c0 141.386719-114.613281 256-256 256s-256-114.613281-256-256 114.613281-256 256-256 256 114.613281 256 256zm0 0" fill="#ffc107"/><path d="m437.910156 302.996094c-2.007812-2.730469-5.183594-4.328125-8.578125-4.328125h-346.664062c-3.394531 0-6.570313 1.597656-8.578125 4.328125-2.003906 2.710937-2.601563 6.230468-1.621094 9.453125 24.917969 81.085937 98.667969 135.550781 183.53125 135.550781s158.613281-54.464844 183.53125-135.550781c.980469-3.222657.40625-6.742188-1.621094-9.453125zm0 0" fill="#fafafa"/><path d="m384 202.667969c0 17.671875-14.328125 32-32 32s-32-14.328125-32-32c0-17.675781 14.328125-32 32-32s32 14.324219 32 32zm0 0" fill="#795548"/><path d="m138.667969 128c-18.476563 0-74.667969 0-74.667969 53.332031 0 41.175781 33.492188 74.667969 74.667969 74.667969 41.171875 0 74.664062-33.492188 74.664062-74.667969 0-53.332031-56.191406-53.332031-74.664062-53.332031zm0 0" fill="#455a64"/><path d="m256 512c-141.164062 0-256-114.835938-256-256s114.835938-256 256-256 256 114.835938 256 256-114.835938 256-256 256zm0-490.667969c-129.386719 0-234.667969 105.28125-234.667969 234.667969s105.28125 234.667969 234.667969 234.667969 234.667969-105.28125 234.667969-234.667969-105.28125-234.667969-234.667969-234.667969zm0 0"/><path d="m352 234.667969c-17.644531 0-32-14.359375-32-32 0-17.644531 14.355469-32 32-32s32 14.355469 32 32c0 17.640625-14.355469 32-32 32zm0-42.667969c-5.867188 0-10.667969 4.777344-10.667969 10.667969 0 5.886719 4.800781 10.664062 10.667969 10.664062s10.667969-4.777343 10.667969-10.664062c0-5.890625-4.800781-10.667969-10.667969-10.667969zm0 0"/><path d="m256 448c-84.863281 0-158.632812-54.464844-183.53125-135.550781-1.003906-3.222657-.40625-6.742188 1.601562-9.453125 2.027344-2.730469 5.226563-4.328125 8.597657-4.328125h346.664062c3.371094 0 6.570313 1.597656 8.578125 4.328125 2.003906 2.710937 2.601563 6.230468 1.597656 9.453125-24.875 81.085937-98.644531 135.550781-183.507812 135.550781zm-158.25-128c25.855469 64.382812 87.722656 106.667969 158.25 106.667969s132.394531-42.285157 158.25-106.667969zm0 0"/><path d="m309.332031 170.667969c-4.457031 0-8.617187-2.816407-10.132812-7.296875-1.855469-5.589844 1.175781-11.628906 6.742187-13.484375l64-21.332031c5.589844-1.855469 11.625 1.152343 13.503906 6.742187 1.855469 5.589844-1.171874 11.625-6.742187 13.480469l-64 21.335937c-1.128906.382813-2.238281.554688-3.371094.554688zm0 0"/><path d="m138.667969 256c-41.175781 0-74.667969-33.492188-74.667969-74.667969 0-53.332031 56.214844-53.332031 74.667969-53.332031s74.664062 0 74.664062 53.332031c0 41.175781-33.492187 74.667969-74.664062 74.667969zm0-106.667969c-44.269531 0-53.335938 12.800781-53.335938 32 0 29.398438 23.914063 53.335938 53.335938 53.335938 29.417969 0 53.332031-23.9375 53.332031-53.335938 0-19.199219-9.066406-32-53.332031-32zm0 0"/><path d="m10.667969 256c-3.4375 0-6.804688-1.664062-8.875-4.757812-3.265625-4.90625-1.941407-11.519532 2.964843-14.785157l64-42.664062c4.84375-3.242188 11.5-1.964844 14.785157 2.964843 3.261719 4.90625 1.941406 11.519532-2.96875 14.785157l-64 42.664062c-1.8125 1.21875-3.859375 1.792969-5.90625 1.792969zm0 0"/><path d="m181.332031 149.332031c-2.984375 0-5.949219-1.257812-8.0625-3.667969-3.863281-4.4375-3.371093-11.179687 1.066407-15.0625 4.652343-4.007812 114.644531-98.601562 198.996093-98.601562 5.890625 0 10.667969 4.777344 10.667969 10.667969 0 5.886719-4.777344 10.664062-10.667969 10.664062-76.457031 0-183.933593 92.460938-185 93.398438-2.027343 1.75-4.523437 2.601562-7 2.601562zm0 0"/></svg>