<svg height="512pt" viewBox="0 0 512 512" width="512pt" xmlns="http://www.w3.org/2000/svg"><path d="m512 256c0 141.386719-114.613281 256-256 256s-256-114.613281-256-256 114.613281-256 256-256 256 114.613281 256 256zm0 0" fill="#ffc107"/><g fill="#795548"><path d="m192 181.332031c0 17.675781-14.328125 32-32 32s-32-14.324219-32-32c0-17.671875 14.328125-32 32-32s32 14.328125 32 32zm0 0"/><path d="m384 181.332031c0 17.675781-14.328125 32-32 32s-32-14.324219-32-32c0-17.671875 14.328125-32 32-32s32 14.328125 32 32zm0 0"/><path d="m224 341.332031h-21.332031c-5.890625 0-10.667969 4.78125-10.667969 10.667969s4.777344 10.667969 10.667969 10.667969h21.332031c5.886719 0 10.667969-4.78125 10.667969-10.667969s-4.78125-10.667969-10.667969-10.667969zm0 0"/></g><path d="m245.332031 298.667969c-17.640625 0-32 14.355469-32 32v53.757812c-9.746093-.363281-21.160156-.425781-21.332031-.425781-47.0625 0-85.332031 28.714844-85.332031 64s38.269531 64 85.332031 64 85.332031-28.714844 85.332031-64v-117.332031c0-17.644531-14.355469-32-32-32zm0 0" fill="#f44336"/><path d="m160 213.332031c-17.644531 0-32-14.355469-32-32 0-17.640625 14.355469-32 32-32s32 14.359375 32 32c0 17.644531-14.355469 32-32 32zm0-42.664062c-5.886719 0-10.667969 4.796875-10.667969 10.664062 0 5.867188 4.78125 10.667969 10.667969 10.667969s10.667969-4.800781 10.667969-10.667969c0-5.867187-4.78125-10.664062-10.667969-10.664062zm0 0"/><path d="m352 213.332031c-17.644531 0-32-14.355469-32-32 0-17.640625 14.355469-32 32-32s32 14.359375 32 32c0 17.644531-14.355469 32-32 32zm0-42.664062c-5.886719 0-10.667969 4.796875-10.667969 10.664062 0 5.867188 4.78125 10.667969 10.667969 10.667969s10.667969-4.800781 10.667969-10.667969c0-5.867187-4.78125-10.664062-10.667969-10.664062zm0 0"/><path d="m309.332031 362.667969h-42.664062c-5.890625 0-10.667969-4.78125-10.667969-10.667969s4.777344-10.667969 10.667969-10.667969h42.664062c5.890625 0 10.667969 4.78125 10.667969 10.667969s-4.777344 10.667969-10.667969 10.667969zm0 0"/><path d="m256 512c-12.5 0-25.726562-1.152344-40.425781-3.476562-5.804688-.9375-9.773438-6.421876-8.855469-12.226563.917969-5.800781 6.335938-9.664063 12.226562-8.851563 13.566407 2.15625 25.683594 3.222657 37.054688 3.222657 129.386719 0 234.667969-105.28125 234.667969-234.667969s-105.28125-234.667969-234.667969-234.667969-234.667969 105.28125-234.667969 234.667969c0 78.25 38.828125 151.082031 103.875 194.835938 4.882813 3.285156 6.183594 9.921874 2.898438 14.808593-3.285157 4.882813-9.898438 6.207031-14.804688 2.898438-70.953125-47.699219-113.300781-127.167969-113.300781-212.542969 0-141.164062 114.835938-256 256-256s256 114.835938 256 256-114.835938 256-256 256zm0 0"/><path d="m224 362.667969h-21.332031c-5.890625 0-10.667969-4.78125-10.667969-10.667969s4.777344-10.667969 10.667969-10.667969h21.332031c5.886719 0 10.667969 4.78125 10.667969 10.667969s-4.78125 10.667969-10.667969 10.667969zm0 0"/><path d="m192 512c-47.0625 0-85.332031-28.714844-85.332031-64s38.269531-64 85.332031-64c.171875 0 11.585938.0625 21.332031.425781v-53.757812c0-17.644531 14.359375-32 32-32 17.644531 0 32 14.355469 32 32v117.332031c0 35.285156-38.269531 64-85.332031 64zm0-106.667969c-34.6875 0-64 19.542969-64 42.667969s29.3125 42.667969 64 42.667969 64-19.542969 64-42.667969v-117.332031c0-5.867188-4.777344-10.667969-10.667969-10.667969-5.886719 0-10.664062 4.800781-10.664062 10.667969v65.085937c0 3.199219-1.429688 6.25-3.925781 8.277344-2.476563 2.027344-5.761719 2.839844-8.898438 2.199219-2.984375-.449219-23.125-.898438-29.84375-.898438zm0 0"/></svg>