<svg height="512pt" viewBox="0 0 512 512" width="512pt" xmlns="http://www.w3.org/2000/svg"><path d="m512 256c0 141.386719-114.613281 256-256 256s-256-114.613281-256-256 114.613281-256 256-256 256 114.613281 256 256zm0 0" fill="#ffc107"/><path d="m192 202.667969c0 17.671875-14.328125 32-32 32s-32-14.328125-32-32c0-17.675781 14.328125-32 32-32s32 14.324219 32 32zm0 0" fill="#795548"/><path d="m384 202.667969c0 17.671875-14.328125 32-32 32s-32-14.328125-32-32c0-17.675781 14.328125-32 32-32s32 14.324219 32 32zm0 0" fill="#795548"/><path d="m170.667969 309.332031c0 29.457031-23.878907 53.335938-53.335938 53.335938-29.453125 0-53.332031-23.878907-53.332031-53.335938 0-29.453125 23.878906-53.332031 53.332031-53.332031 29.457031 0 53.335938 23.878906 53.335938 53.332031zm0 0" fill="#f44336"/><path d="m448 309.332031c0 29.457031-23.878906 53.335938-53.332031 53.335938-29.457031 0-53.335938-23.878907-53.335938-53.335938 0-29.453125 23.878907-53.332031 53.335938-53.332031 29.453125 0 53.332031 23.878906 53.332031 53.332031zm0 0" fill="#f44336"/><path d="m256 512c-141.164062 0-256-114.835938-256-256s114.835938-256 256-256 256 114.835938 256 256-114.835938 256-256 256zm0-490.667969c-129.386719 0-234.667969 105.28125-234.667969 234.667969s105.28125 234.667969 234.667969 234.667969 234.667969-105.28125 234.667969-234.667969-105.28125-234.667969-234.667969-234.667969zm0 0"/><path d="m160 234.667969c-17.644531 0-32-14.359375-32-32 0-17.644531 14.355469-32 32-32s32 14.355469 32 32c0 17.640625-14.355469 32-32 32zm0-42.667969c-5.886719 0-10.667969 4.800781-10.667969 10.667969 0 5.867187 4.78125 10.664062 10.667969 10.664062s10.667969-4.796875 10.667969-10.664062c0-5.867188-4.78125-10.667969-10.667969-10.667969zm0 0"/><path d="m352 234.667969c-17.644531 0-32-14.359375-32-32 0-17.644531 14.355469-32 32-32s32 14.355469 32 32c0 17.640625-14.355469 32-32 32zm0-42.667969c-5.886719 0-10.667969 4.800781-10.667969 10.667969 0 5.867187 4.78125 10.664062 10.667969 10.664062s10.667969-4.796875 10.667969-10.664062c0-5.867188-4.78125-10.667969-10.667969-10.667969zm0 0"/><path d="m256 405.332031c-33.8125 0-64.894531-17.855469-83.15625-47.765625-3.074219-5.03125-1.472656-11.605468 3.5625-14.675781 4.992188-3.09375 11.582031-1.472656 14.65625 3.542969 14.335938 23.527344 38.613281 37.566406 64.9375 37.566406s50.601562-14.039062 64.9375-37.566406c3.074219-5.015625 9.664062-6.636719 14.65625-3.542969 5.035156 3.070313 6.636719 9.621094 3.5625 14.675781-18.261719 29.910156-49.34375 47.765625-83.15625 47.765625zm0 0"/><path d="m117.332031 170.667969c-3.925781 0-7.679687-2.175781-9.554687-5.890625-2.625-5.269532-.492188-11.667969 4.777344-14.3125l42.667968-21.335938c5.269532-2.644531 11.6875-.488281 14.3125 4.757813 2.644532 5.269531.492188 11.671875-4.777344 14.316406l-42.667968 21.332031c-1.515625.769532-3.136719 1.132813-4.757813 1.132813zm0 0"/><path d="m394.667969 170.667969c-1.601563 0-3.222657-.363281-4.757813-1.132813l-42.667968-21.332031c-5.269532-2.644531-7.402344-9.046875-4.777344-14.316406 2.644531-5.246094 9.042968-7.421875 14.3125-4.777344l42.667968 21.332031c5.269532 2.648438 7.402344 9.046875 4.777344 14.316406-1.898437 3.734376-5.652344 5.910157-9.554687 5.910157zm0 0"/><path d="m117.332031 362.667969c-29.394531 0-53.332031-23.914063-53.332031-53.335938 0-29.417969 23.9375-53.332031 53.332031-53.332031 29.398438 0 53.335938 23.914062 53.335938 53.332031 0 29.421875-23.9375 53.335938-53.335938 53.335938zm0-85.335938c-17.640625 0-32 14.359375-32 32 0 17.644531 14.359375 32 32 32 17.644531 0 32-14.355469 32-32 0-17.640625-14.355469-32-32-32zm0 0"/><path d="m394.667969 362.667969c-29.398438 0-53.335938-23.914063-53.335938-53.335938 0-29.417969 23.9375-53.332031 53.335938-53.332031 29.394531 0 53.332031 23.914062 53.332031 53.332031 0 29.421875-23.9375 53.335938-53.332031 53.335938zm0-85.335938c-17.644531 0-32 14.359375-32 32 0 17.644531 14.355469 32 32 32 17.640625 0 32-14.355469 32-32 0-17.640625-14.359375-32-32-32zm0 0"/></svg>