<svg height="512pt" viewBox="0 0 512 512" width="512pt" xmlns="http://www.w3.org/2000/svg"><path d="m512 256c0 141.386719-114.613281 256-256 256s-256-114.613281-256-256 114.613281-256 256-256 256 114.613281 256 256zm0 0" fill="#ffc107"/><path d="m426.667969 309.332031c0 17.675781-14.328125 32-32 32-17.675781 0-32-14.324219-32-32 0-17.671875 14.324219-32 32-32 17.671875 0 32 14.328125 32 32zm0 0" fill="#eceff1"/><path d="m192 202.667969c0 17.671875-14.328125 32-32 32s-32-14.328125-32-32c0-17.675781 14.328125-32 32-32s32 14.324219 32 32zm0 0" fill="#795548"/><path d="m384 202.667969c0 17.671875-14.328125 32-32 32s-32-14.328125-32-32c0-17.675781 14.328125-32 32-32s32 14.324219 32 32zm0 0" fill="#795548"/><path d="m256 512c-141.164062 0-256-114.835938-256-256s114.835938-256 256-256 256 114.835938 256 256-114.835938 256-256 256zm0-490.667969c-129.386719 0-234.667969 105.28125-234.667969 234.667969s105.28125 234.667969 234.667969 234.667969 234.667969-105.28125 234.667969-234.667969-105.28125-234.667969-234.667969-234.667969zm0 0"/><path d="m160 234.667969c-17.644531 0-32-14.359375-32-32 0-17.644531 14.355469-32 32-32s32 14.355469 32 32c0 17.640625-14.355469 32-32 32zm0-42.667969c-5.886719 0-10.667969 4.777344-10.667969 10.667969 0 5.886719 4.78125 10.664062 10.667969 10.664062s10.667969-4.777343 10.667969-10.664062c0-5.890625-4.78125-10.667969-10.667969-10.667969zm0 0"/><path d="m352 234.667969c-17.644531 0-32-14.359375-32-32 0-17.644531 14.355469-32 32-32s32 14.355469 32 32c0 17.640625-14.355469 32-32 32zm0-42.667969c-5.886719 0-10.667969 4.777344-10.667969 10.667969 0 5.886719 4.78125 10.664062 10.667969 10.664062s10.667969-4.777343 10.667969-10.664062c0-5.890625-4.78125-10.667969-10.667969-10.667969zm0 0"/><path d="m372.734375 405.332031c-3.519531 0-6.953125-1.726562-8.980469-4.90625-23.722656-36.992187-64-59.09375-107.734375-59.09375-43.730469 0-84.007812 22.101563-107.730469 59.09375-3.160156 4.949219-9.773437 6.378907-14.742187 3.222657-4.949219-3.179688-6.398437-9.769532-3.222656-14.742188 27.628906-43.136719 74.625-68.90625 125.675781-68.90625s98.046875 25.769531 125.695312 68.90625c3.179688 4.972656 1.75 11.5625-3.21875 14.742188-1.773437 1.152343-3.777343 1.683593-5.742187 1.683593zm0 0"/><path d="m394.667969 341.332031c-17.644531 0-32-14.355469-32-32 0-17.640625 14.355469-32 32-32 17.640625 0 32 14.359375 32 32 0 17.644531-14.359375 32-32 32zm0-42.664062c-5.890625 0-10.667969 4.777343-10.667969 10.664062 0 5.890625 4.777344 10.667969 10.667969 10.667969 5.886719 0 10.664062-4.777344 10.664062-10.667969 0-5.886719-4.777343-10.664062-10.664062-10.664062zm0 0"/><path d="m266.667969 341.332031c-5.121094 0-9.644531-3.6875-10.519531-8.917969-.960938-5.800781 2.964843-11.304687 8.769531-12.265624l106.667969-17.769532c5.820312-.980468 11.304687 2.964844 12.265624 8.769532.960938 5.800781-2.964843 11.304687-8.769531 12.265624l-106.667969 17.769532c-.59375.105468-1.171874.148437-1.746093.148437zm0 0"/><path d="m117.332031 170.667969c-3.925781 0-7.679687-2.15625-9.554687-5.890625-2.625-5.269532-.492188-11.6875 4.777344-14.3125l42.667968-21.335938c5.269532-2.601562 11.6875-.488281 14.3125 4.757813 2.644532 5.269531.492188 11.671875-4.777344 14.316406l-42.667968 21.332031c-1.515625.769532-3.136719 1.132813-4.757813 1.132813zm0 0"/><path d="m394.667969 170.667969c-2.242188 0-4.480469-.707031-6.402344-2.132813l-42.664063-32c-4.714843-3.542968-5.675781-10.21875-2.136718-14.933594 3.542968-4.714843 10.242187-5.65625 14.933594-2.136718l42.667968 32c4.714844 3.542968 5.675782 10.21875 2.132813 14.933594-2.089844 2.796874-5.289063 4.269531-8.53125 4.269531zm0 0"/></svg>