<svg height="501pt" viewBox="-26 0 501 501.31166" width="501pt" xmlns="http://www.w3.org/2000/svg"><path d="m380.132812 63.1875c-43.863281-42.539062-101.613281-64.746094-162.925781-63.1015625-118.675781 3.6054685-216.039062 103.1875005-217.042969 221.9921875-.425781 51.542969 17.152344 102.015625 49.429688 142.167969 9.386719 11.648437 14.570312 25.898437 14.570312 40.105468v22.292969c0 2.582031.9375 5.078125 2.625 7.019531 2.132813 2.410157 3.15625 8.234376 4.179688 13.84375 2.199219 12.117188 5.164062 28.738282 23.0625 35.5 8.277344 3.222657 16.320312-1.34375 24.042969-5.78125 4.007812-2.261718 10.089843-6.101562 12.265625-5.972656 1.320312.875 4.117187 4.949219 5.972656 7.636719 5.398438 7.851563 12.097656 17.601563 23.210938 18.921875 9.171874 1.023438 16.746093-5.480469 23.402343-11.242188 2.859375-2.476562 8.171875-7.105468 9.195313-7.53125 1.578125.660157 5.355468 4.738282 7.574218 7.167969 6.207032 6.71875 13.929688 15.082031 24.445313 15.082031 10.519531 0 18.21875-8.382812 24.449219-15.082031 2.21875-2.429687 5.972656-6.507812 6.507812-7.019531 2.089844.277344 7.421875 4.886719 10.261719 7.402344 6.632813 5.78125 14.058594 12.289062 23.402344 11.222656 11.113281-1.320312 17.855469-11.070312 23.273437-18.921875 1.878906-2.710937 4.695313-6.785156 4.949219-7.273437 2.453125-.511719 9.324219 3.285156 13.375 5.585937 7.703125 4.398437 15.679687 8.941406 24.042969 5.785156 17.8125-6.765625 20.800781-23.382812 22.957031-35.5 1-5.609375 2.046875-11.414062 4.136719-13.824219 1.707031-1.941406 2.644531-4.4375 2.644531-7.019531v-21.078125c0-14.933594 5.3125-29.78125 14.957031-41.8125 32.085938-40.085937 49.042969-88.425781 49.042969-139.777344.023437-61.117187-24.148437-118.226562-68.007813-160.789062zm0 0" fill="#cfd8dc"/><g fill="#455a64"><path d="m216.503906 301.886719c-10.707031 11.050781-45.671875 48.855469-45.671875 71.425781 0 21.226562 10.769531 32 32 32 7.613281 0 15.378907-2.816406 21.332031-7.980469 5.953126 5.164063 13.714844 7.980469 21.332032 7.980469 21.226562 0 32-10.773438 32-32 0-22.570312-34.964844-60.375-45.675782-71.425781-4.03125-4.160157-11.285156-4.160157-15.316406 0zm0 0"/><path d="m170.832031 245.3125c0 29.453125-23.878906 53.332031-53.335937 53.332031-29.453125 0-53.332032-23.878906-53.332032-53.332031 0-29.457031 23.878907-53.335938 53.332032-53.335938 29.457031 0 53.335937 23.878907 53.335937 53.335938zm0 0"/><path d="m384.164062 245.3125c0 29.453125-23.878906 53.332031-53.332031 53.332031-29.457031 0-53.335937-23.878906-53.335937-53.332031 0-29.457031 23.878906-53.335938 53.335937-53.335938 29.453125 0 53.332031 23.878907 53.332031 53.335938zm0 0"/></g><path d="m373.496094 437.3125c-5.886719 0-10.664063-4.78125-10.664063-10.667969v-21.078125c0-19.773437 6.972657-39.359375 19.625-55.144531 29.011719-36.246094 44.375-79.980469 44.375-126.445313 0-55.292968-21.867187-106.964843-61.570312-145.46875-39.660157-38.507812-91.902344-58.605468-147.414063-57.089843-107.371094 3.242187-195.453125 93.355469-196.351562 200.832031-.382813 46.65625 15.511718 92.308594 44.738281 128.617188 12.414063 15.425781 19.261719 34.414062 19.261719 53.484374v22.292969c0 5.886719-4.777344 10.667969-10.664063 10.667969-5.890625 0-10.667969-4.78125-10.667969-10.667969v-22.292969c0-14.230468-5.164062-28.457031-14.550781-40.105468-32.320312-40.128906-49.875-90.625-49.449219-142.167969 1.003907-118.804687 98.367188-218.386719 217.042969-221.9921875 61.144531-1.6445315 119.0625 20.5625005 162.902344 63.1015625 43.882813 42.5625 68.054687 99.671875 68.054687 160.789062 0 51.351563-16.960937 99.691407-49.046874 139.777344-9.640626 12.03125-14.953126 26.878906-14.953126 41.8125v21.078125c0 5.886719-4.78125 10.667969-10.667968 10.667969zm0 0"/><path d="m224.164062 501.3125c-10.519531 0-18.242187-8.386719-24.449218-15.082031-2.238282-2.433594-5.992188-6.507813-7.574219-7.167969-1.042969.425781-6.335937 5.03125-9.191406 7.527344-6.636719 5.78125-14.253907 12.269531-23.40625 11.246094-11.089844-1.324219-17.789063-11.074219-23.1875-18.925782-1.855469-2.6875-4.652344-6.761718-5.972657-7.636718-1.410156.148437-8.214843 3.691406-12.265624 5.972656-7.746094 4.394531-15.765626 8.984375-24.085938 5.78125-17.878906-6.761719-20.886719-23.378906-23.0625-35.496094-1.003906-5.632812-2.046875-11.4375-4.179688-13.847656-3.882812-4.4375-3.4375-11.15625 1-15.039063 4.417969-3.902343 11.136719-3.457031 15.0625 1.003907 6.015626 6.867187 7.660157 16.042968 9.109376 24.128906 1.941406 10.792968 3.414062 16.210937 8.320312 18.75 1.8125-.683594 5.011719-2.515625 7.253906-3.796875 7.976563-4.523438 17.875-10.175781 28.351563-7.914063 8.210937 1.792969 13.203125 9.042969 18.027343 16.042969 2.195313 3.199219 6.269532 9.152344 8.296876 9.855469.171874-.46875 4.097656-3.925782 6.71875-6.1875 7.0625-6.144532 14.871093-13.011719 25.195312-12.585938 8.917969.449219 15.191406 7.253906 21.269531 13.824219 2.496094 2.707031 7.125 7.722656 9.109375 8.277344 1.300782-.535157 5.929688-5.570313 8.425782-8.277344 6.082031-6.570313 12.355468-13.375 21.269531-13.824219 10.175781-.46875 18.136719 6.441406 25.195312 12.585938 2.625 2.261718 6.570313 5.71875 8.148438 6.207031.621093-.703125 4.757812-6.675781 6.976562-9.898437 4.84375-7.019532 9.835938-14.269532 18.050781-16.042969 10.558594-2.238281 20.414063 3.414062 28.371094 7.917969 2.21875 1.277343 5.417969 3.089843 7.234375 3.773437 4.863281-2.539063 6.3125-7.933594 8.234375-18.730469 1.449219-8.085937 3.09375-17.257812 9.085938-24.105468 3.882812-4.460938 10.601562-4.886719 15.0625-1.003907 4.4375 3.882813 4.886718 10.601563 1.003906 15.039063-2.113281 2.390625-3.136719 8.214844-4.140625 13.824218-2.175781 12.117188-5.140625 28.738282-22.996094 35.5-8.320312 3.113282-16.300781-1.367187-24.023437-5.78125-4.050782-2.28125-10.792969-6.273437-13.332032-5.589843-.277343.46875-3.113281 4.585937-4.972656 7.273437-5.417968 7.851563-12.160156 17.621094-23.273437 18.925782-9.171875 1.234374-16.789063-5.464844-23.421875-11.246094-2.859375-2.472656-8.171875-7.101563-10.242188-7.378906-.511718.511718-4.265625 4.585937-6.527344 7.019531-6.25 6.695312-13.953124 15.082031-24.46875 15.082031zm-124.714843-38.570312"/><path d="m202.832031 405.3125c-21.230469 0-32-10.773438-32-32 0-22.570312 34.964844-60.375 45.671875-71.425781 4.097656-4.265625 10.859375-4.308594 15.082032-.253907 4.226562 4.09375 4.332031 10.859376.234374 15.082032-19.132812 19.777344-39.65625 47.230468-39.65625 56.574218 0 10.667969 2.472657 10.667969 10.667969 10.667969 2.964844 0 10.664063-1.921875 10.664063-10.667969 0-5.886718 4.78125-10.664062 10.667968-10.664062 5.886719 0 10.667969 4.777344 10.667969 10.664062 0 20.035157-16.277343 32.023438-32 32.023438zm0 0"/><path d="m245.496094 405.3125c-15.722656 0-32-11.988281-32-32 0-5.890625 4.78125-10.667969 10.667968-10.667969 5.886719 0 10.667969 4.777344 10.667969 10.667969 0 8.746094 7.699219 10.664062 10.664063 10.664062 8.191406 0 10.667968 0 10.667968-10.664062 0-9.367188-20.503906-36.84375-39.660156-56.578125-4.09375-4.222656-4.011718-10.984375.234375-15.082031 4.226563-4.050782 10.964844-4.011719 15.082031.257812 10.710938 11.050782 45.675782 48.851563 45.675782 71.421875 0 21.207031-10.773438 31.980469-32 31.980469zm0 0"/><path d="m117.496094 298.644531c-29.398438 0-53.332032-23.914062-53.332032-53.332031s23.933594-53.335938 53.332032-53.335938c29.398437 0 53.335937 23.917969 53.335937 53.335938s-23.9375 53.332031-53.335937 53.332031zm0-85.332031c-17.640625 0-32 14.355469-32 32 0 17.640625 14.359375 32 32 32 17.644531 0 32-14.359375 32-32 0-17.644531-14.355469-32-32-32zm0 0"/><path d="m330.832031 298.644531c-29.398437 0-53.335937-23.914062-53.335937-53.332031s23.9375-53.335938 53.335937-53.335938c29.394531 0 53.332031 23.917969 53.332031 53.335938s-23.9375 53.332031-53.332031 53.332031zm0-85.332031c-17.644531 0-32 14.355469-32 32 0 17.640625 14.355469 32 32 32 17.640625 0 32-14.359375 32-32 0-17.644531-14.359375-32-32-32zm0 0"/></svg>