<svg height="512pt" viewBox="0 0 512 512" width="512pt" xmlns="http://www.w3.org/2000/svg"><path d="m512 256c0 141.386719-114.613281 256-256 256s-256-114.613281-256-256 114.613281-256 256-256 256 114.613281 256 256zm0 0" fill="#ffc107"/><path d="m256 512c-141.164062 0-256-114.835938-256-256s114.835938-256 256-256 256 114.835938 256 256-114.835938 256-256 256zm0-490.667969c-129.386719 0-234.667969 105.28125-234.667969 234.667969s105.28125 234.667969 234.667969 234.667969 234.667969-105.28125 234.667969-234.667969-105.28125-234.667969-234.667969-234.667969zm0 0"/><path d="m160 256c-29.398438 0-53.332031-23.914062-53.332031-53.332031 0-5.890625 4.777343-10.667969 10.664062-10.667969 5.890625 0 10.667969 4.777344 10.667969 10.667969 0 17.640625 14.355469 32 32 32s32-14.359375 32-32c0-5.890625 4.777344-10.667969 10.667969-10.667969 5.886719 0 10.664062 4.777344 10.664062 10.667969 0 29.417969-23.933593 53.332031-53.332031 53.332031zm0 0"/><path d="m352 256c-29.398438 0-53.332031-23.914062-53.332031-53.332031 0-5.890625 4.777343-10.667969 10.664062-10.667969 5.890625 0 10.667969 4.777344 10.667969 10.667969 0 17.640625 14.355469 32 32 32s32-14.359375 32-32c0-5.890625 4.777344-10.667969 10.667969-10.667969 5.886719 0 10.664062 4.777344 10.664062 10.667969 0 29.417969-23.933593 53.332031-53.332031 53.332031zm0 0"/><path d="m309.332031 384h-106.664062c-5.890625 0-10.667969-4.777344-10.667969-10.667969 0-5.886719 4.777344-10.664062 10.667969-10.664062h106.664062c5.890625 0 10.667969 4.777343 10.667969 10.664062 0 5.890625-4.777344 10.667969-10.667969 10.667969zm0 0"/><path d="m501.332031 85.332031h-42.664062c-3.949219 0-7.554688-2.175781-9.410157-5.628906-1.855468-3.480469-1.640624-7.683594.535157-10.96875l31.613281-47.402344h-22.738281c-5.890625 0-10.667969-4.777343-10.667969-10.664062 0-5.890625 4.777344-10.667969 10.667969-10.667969h42.664062c3.949219 0 7.554688 2.175781 9.410157 5.632812 1.855468 3.476563 1.640624 7.679688-.535157 10.964844l-31.613281 47.402344h22.738281c5.890625 0 10.667969 4.777344 10.667969 10.667969 0 5.886719-4.777344 10.664062-10.667969 10.664062zm0 0"/><path d="m437.332031 170.667969h-85.332031c-4.097656 0-7.828125-2.347657-9.621094-6.039063-1.769531-3.710937-1.28125-8.085937 1.28125-11.285156l71.464844-89.34375h-63.125c-5.886719 0-10.667969-4.777344-10.667969-10.667969 0-5.886719 4.78125-10.664062 10.667969-10.664062h85.332031c4.097657 0 7.832031 2.34375 9.621094 6.035156 1.773437 3.710937 1.28125 8.085937-1.277344 11.285156l-71.46875 89.34375h63.125c5.890625 0 10.667969 4.78125 10.667969 10.667969s-4.777344 10.667969-10.667969 10.667969zm0 0"/></svg>