<svg height="512pt" viewBox="0 0 512 512" width="512pt" xmlns="http://www.w3.org/2000/svg"><path d="m512 256c0 141.386719-114.613281 256-256 256s-256-114.613281-256-256 114.613281-256 256-256 256 114.613281 256 256zm0 0" fill="#ffc107"/><path d="m256 277.332031c-66.792969 0-106.667969 31.894531-106.667969 85.335938 0 58.816406 47.851563 106.664062 106.667969 106.664062s106.667969-47.847656 106.667969-106.664062c0-53.441407-39.875-85.335938-106.667969-85.335938zm0 0" fill="#f44336"/><path d="m192 181.332031c0 17.675781-14.328125 32-32 32s-32-14.324219-32-32c0-17.671875 14.328125-32 32-32s32 14.328125 32 32zm0 0" fill="#795548"/><path d="m384 181.332031c0 17.675781-14.328125 32-32 32s-32-14.324219-32-32c0-17.671875 14.328125-32 32-32s32 14.328125 32 32zm0 0" fill="#795548"/><path d="m256 512c-141.164062 0-256-114.835938-256-256s114.835938-256 256-256 256 114.835938 256 256-114.835938 256-256 256zm0-490.667969c-129.386719 0-234.667969 105.28125-234.667969 234.667969s105.28125 234.667969 234.667969 234.667969 234.667969-105.28125 234.667969-234.667969-105.28125-234.667969-234.667969-234.667969zm0 0"/><path d="m160 234.667969c-29.417969 0-53.332031-23.914063-53.332031-53.335938 0-29.417969 23.914062-53.332031 53.332031-53.332031s53.332031 23.914062 53.332031 53.332031c0 29.421875-23.914062 53.335938-53.332031 53.335938zm0-85.335938c-17.644531 0-32 14.359375-32 32 0 17.644531 14.355469 32 32 32s32-14.355469 32-32c0-17.640625-14.355469-32-32-32zm0 0"/><path d="m352 234.667969c-29.417969 0-53.332031-23.914063-53.332031-53.335938 0-29.417969 23.914062-53.332031 53.332031-53.332031s53.332031 23.914062 53.332031 53.332031c0 29.421875-23.914062 53.335938-53.332031 53.335938zm0-85.335938c-17.644531 0-32 14.359375-32 32 0 17.644531 14.355469 32 32 32s32-14.355469 32-32c0-17.640625-14.355469-32-32-32zm0 0"/><path d="m256 469.332031c-58.816406 0-106.667969-47.847656-106.667969-106.664062 0-53.441407 39.875-85.335938 106.667969-85.335938s106.667969 31.894531 106.667969 85.335938c0 58.816406-47.851563 106.664062-106.667969 106.664062zm0-170.664062c-31.871094 0-85.332031 8.320312-85.332031 64 0 47.058593 38.269531 85.332031 85.332031 85.332031s85.332031-38.273438 85.332031-85.332031c0-55.679688-53.460937-64-85.332031-64zm0 0"/></svg>