<svg height="512pt" viewBox="0 0 512 512" width="512pt" xmlns="http://www.w3.org/2000/svg"><path d="m512 256c0 141.386719-114.613281 256-256 256s-256-114.613281-256-256 114.613281-256 256-256 256 114.613281 256 256zm0 0" fill="#ffc107"/><path d="m192 181.332031c0 17.675781-14.328125 32-32 32s-32-14.324219-32-32c0-17.671875 14.328125-32 32-32s32 14.328125 32 32zm0 0" fill="#795548"/><path d="m384 181.332031c0 17.675781-14.328125 32-32 32s-32-14.324219-32-32c0-17.671875 14.328125-32 32-32s32 14.328125 32 32zm0 0" fill="#795548"/><path d="m256 298.667969c-35.285156 0-64 28.714843-64 64 0 42.664062 41.621094 42.664062 64 42.664062s64 0 64-42.664062c0-35.285157-28.714844-64-64-64zm0 0" fill="#f44336"/><path d="m468.136719 69.78125c-3.625-7.105469-15.335938-7.105469-18.964844 0-7.316406 14.273438-43.839844 86.65625-43.839844 111.550781 0 29.398438 23.914063 53.335938 53.335938 53.335938 29.417969 0 53.332031-23.9375 53.332031-53.335938 0-24.894531-36.523438-97.277343-43.863281-111.550781zm0 0" fill="#2196f3"/><path d="m160 213.332031c-17.644531 0-32-14.355469-32-32 0-17.640625 14.355469-32 32-32s32 14.359375 32 32c0 17.644531-14.355469 32-32 32zm0-42.664062c-5.867188 0-10.667969 4.796875-10.667969 10.664062 0 5.867188 4.800781 10.667969 10.667969 10.667969s10.667969-4.800781 10.667969-10.667969c0-5.867187-4.800781-10.664062-10.667969-10.664062zm0 0"/><path d="m352 213.332031c-17.644531 0-32-14.355469-32-32 0-17.640625 14.355469-32 32-32s32 14.359375 32 32c0 17.644531-14.355469 32-32 32zm0-42.664062c-5.867188 0-10.667969 4.796875-10.667969 10.664062 0 5.867188 4.800781 10.667969 10.667969 10.667969s10.667969-4.800781 10.667969-10.667969c0-5.867187-4.800781-10.664062-10.667969-10.664062zm0 0"/><path d="m256 405.332031c-22.378906 0-64 0-64-42.664062 0-35.285157 28.714844-64 64-64s64 28.714843 64 64c0 42.664062-41.621094 42.664062-64 42.664062zm0-85.332031c-23.53125 0-42.667969 19.136719-42.667969 42.667969 0 15.742187 6.445313 21.332031 42.667969 21.332031s42.667969-5.589844 42.667969-21.332031c0-23.53125-19.136719-42.667969-42.667969-42.667969zm0 0"/><path d="m256 512c-141.164062 0-256-114.835938-256-256s114.835938-256 256-256c77.035156 0 149.269531 34.238281 198.121094 93.953125 3.734375 4.5625 3.074218 11.261719-1.492188 14.996094-4.542968 3.734375-11.285156 3.070312-14.996094-1.492188-44.820312-54.722656-111-86.125-181.632812-86.125-129.386719 0-234.667969 105.28125-234.667969 234.667969s105.28125 234.667969 234.667969 234.667969 234.667969-105.28125 234.667969-234.667969c0-16.660156-1.921875-33.8125-5.71875-50.964844-1.28125-5.761718 2.347656-11.433594 8.128906-12.714844 5.84375-1.214843 11.433594 2.390626 12.714844 8.128907 4.117187 18.664062 6.207031 37.332031 6.207031 55.550781 0 141.164062-114.835938 256-256 256zm0 0"/><path d="m458.667969 234.667969c-29.421875 0-53.335938-23.914063-53.335938-53.335938 0-24.875 36.523438-97.277343 43.863281-111.550781 3.625-7.125 15.339844-7.125 18.964844 0 7.316406 14.273438 43.839844 86.675781 43.839844 111.550781 0 29.421875-23.914062 53.335938-53.332031 53.335938zm0-136.066407c-14.976563 30.976563-32 70.230469-32 82.730469 0 17.644531 14.355469 32 32 32 17.640625 0 32-14.355469 32-32 0-12.5-17.023438-51.753906-32-82.730469zm0 0"/></svg>