<svg height="512pt" viewBox="0 0 512 512" width="512pt" xmlns="http://www.w3.org/2000/svg"><path d="m512 256c0 141.386719-114.613281 256-256 256s-256-114.613281-256-256 114.613281-256 256-256 256 114.613281 256 256zm0 0" fill="#ffc107"/><path d="m192 181.332031c0 17.675781-14.328125 32-32 32s-32-14.324219-32-32c0-17.671875 14.328125-32 32-32s32 14.328125 32 32zm0 0" fill="#795548"/><path d="m384 181.332031c0 17.675781-14.328125 32-32 32s-32-14.324219-32-32c0-17.671875 14.328125-32 32-32s32 14.328125 32 32zm0 0" fill="#795548"/><path d="m362.667969 362.667969v53.332031c0 29.441406-23.894531 53.332031-53.335938 53.332031-29.4375 0-53.332031-23.890625-53.332031-53.332031v-21.332031c0-4.480469 2.773438-8.320313 6.828125-10.027344l2.34375-1.066406h.214844c24.535156-1.707031 47.785156-10.453125 66.988281-24.960938l15.785156-5.972656c3.414063-1.28125 7.039063-.640625 9.8125 1.28125 2.347656 1.492187 3.839844 4.050781 4.480469 6.613281.214844.636719.214844 1.492188.214844 2.132813zm0 0" fill="#f44336"/><path d="m256 512c-141.164062 0-256-114.835938-256-256s114.835938-256 256-256 256 114.835938 256 256-114.835938 256-256 256zm0-490.667969c-129.386719 0-234.667969 105.28125-234.667969 234.667969s105.28125 234.667969 234.667969 234.667969 234.667969-105.28125 234.667969-234.667969-105.28125-234.667969-234.667969-234.667969zm0 0"/><path d="m160 213.332031c-17.644531 0-32-14.355469-32-32 0-17.640625 14.355469-32 32-32s32 14.359375 32 32c0 17.644531-14.355469 32-32 32zm0-42.664062c-5.867188 0-10.667969 4.796875-10.667969 10.664062 0 5.867188 4.800781 10.667969 10.667969 10.667969s10.667969-4.800781 10.667969-10.667969c0-5.867187-4.800781-10.664062-10.667969-10.664062zm0 0"/><path d="m352 213.332031c-17.644531 0-32-14.355469-32-32 0-17.640625 14.355469-32 32-32s32 14.359375 32 32c0 17.644531-14.355469 32-32 32zm0-42.664062c-5.867188 0-10.667969 4.796875-10.667969 10.664062 0 5.867188 4.800781 10.667969 10.667969 10.667969s10.667969-4.800781 10.667969-10.667969c0-5.867187-4.800781-10.664062-10.667969-10.664062zm0 0"/><path d="m256 405.332031c-51.070312 0-98.070312-25.769531-125.71875-68.90625-3.175781-4.949219-1.726562-11.5625 3.222656-14.71875 4.886719-3.179687 11.519532-1.769531 14.71875 3.222657 23.746094 36.992187 64.023438 59.070312 107.777344 59.070312s84.03125-22.078125 107.753906-59.09375c3.179688-4.96875 9.835938-6.398438 14.722656-3.222656 4.949219 3.160156 6.417969 9.773437 3.21875 14.722656-27.625 43.15625-74.625 68.925781-125.695312 68.925781zm0 0"/><path d="m309.332031 469.332031c-29.417969 0-53.332031-23.914062-53.332031-53.332031v-21.332031c0-5.890625 4.777344-10.667969 10.667969-10.667969 5.886719 0 10.664062 4.777344 10.664062 10.667969v21.332031c0 17.644531 14.359375 32 32 32 17.644531 0 32-14.355469 32-32v-53.332031c0-5.890625 4.78125-10.667969 10.667969-10.667969s10.667969 4.777344 10.667969 10.667969v53.332031c0 29.417969-23.914063 53.332031-53.335938 53.332031zm0 0"/></svg>