<svg height="512pt" viewBox="0 0 512 512" width="512pt" xmlns="http://www.w3.org/2000/svg"><path d="m512 256c0 141.386719-114.613281 256-256 256s-256-114.613281-256-256 114.613281-256 256-256 256 114.613281 256 256zm0 0" fill="#ffc107"/><path d="m383.507812 391.425781c-17.726562-55.488281-68.96875-92.757812-127.507812-92.757812s-109.78125 37.269531-127.507812 92.757812c-1.027344 3.242188-.449219 6.78125 1.554687 9.535157 2.007813 2.75 5.226563 4.371093 8.621094 4.371093h234.664062c3.394531 0 6.613281-1.621093 8.597657-4.371093 2.027343-2.753907 2.582031-6.292969 1.578124-9.535157zm0 0" fill="#f44336"/><path d="m405.289062 479.167969c-1.386718-18.070313-23.59375-30.976563-51.882812-30.058594-1.148438-2.238281-.554688-12.417969 5.933594-25.835937 5.738281-11.839844 12.074218-17.535157 13.992187-17.941407 3.5 0 6.765625-1.726562 8.769531-4.585937 1.984376-2.878906 2.433594-6.546875 1.214844-9.8125-.746094-2.046875-19.839844-49.601563-127.316406-49.601563s-126.570312 47.554688-127.316406 49.578125c-1.238282 3.289063-.875 6.957032 1.128906 9.816406 1.984375 2.878907 5.164062 4.605469 8.664062 4.605469 2.109376.429688 8.445313 6.125 14.164063 17.964844 6.507813 13.417969 7.082031 23.59375 7.359375 24.703125-29.484375 0-51.902344 13.121094-53.355469 31.894531-.445312 5.566407-1.128906 13.992188 5.335938 20.96875 7.316406 7.914063 21.203125 11.136719 48.019531 11.136719h192c26.816406 0 40.703125-3.222656 48.019531-11.136719 6.464844-6.976562 5.761719-15.402343 5.269531-21.695312zm0 0" fill="#4caf50"/><path d="m373.332031 405.332031c-4.519531 0-8.722656-2.898437-10.175781-7.421875-15.101562-47.316406-57.152344-77.910156-107.15625-77.910156s-92.054688 30.59375-107.15625 77.910156c-1.792969 5.609375-7.808594 8.660156-13.398438 6.910156-5.609374-1.789062-8.703124-7.785156-6.933593-13.417968 17.707031-55.464844 68.929687-92.734375 127.488281-92.734375s109.78125 37.269531 127.507812 92.757812c1.773438 5.628907-1.320312 11.625-6.933593 13.417969-1.066407.320312-2.175781.488281-3.242188.488281zm0 0"/><path d="m181.332031 234.667969h-64c-5.886719 0-10.664062-4.78125-10.664062-10.667969s4.777343-10.667969 10.664062-10.667969h64c5.890625 0 10.667969 4.78125 10.667969 10.667969s-4.777344 10.667969-10.667969 10.667969zm0 0"/><path d="m394.667969 234.667969h-64c-5.890625 0-10.667969-4.78125-10.667969-10.667969s4.777344-10.667969 10.667969-10.667969h64c5.886719 0 10.664062 4.78125 10.664062 10.667969s-4.777343 10.667969-10.664062 10.667969zm0 0"/><path d="m382.996094 476.289062c-3.605469 0-7.125-1.835937-9.128906-5.121093-3.074219-5.035157-1.453126-11.605469 3.582031-14.675781 70.890625-43.03125 113.21875-117.996094 113.21875-200.492188 0-129.386719-105.28125-234.667969-234.667969-234.667969s-234.667969 105.28125-234.667969 234.667969c0 82.496094 42.328125 157.460938 113.21875 200.492188 5.035157 3.070312 6.65625 9.621093 3.582031 14.675781-3.050781 5.011719-9.597656 6.613281-14.65625 3.585937-77.3125-46.957031-123.476562-128.726562-123.476562-218.753906 0-141.164062 114.835938-256 256-256s256 114.835938 256 256c0 90.027344-46.164062 171.796875-123.476562 218.753906-1.730469 1.042969-3.628907 1.535156-5.527344 1.535156zm0 0"/><path d="m352 512h-192c-26.792969 0-40.703125-3.222656-48-11.113281-6.441406-6.976563-5.78125-15.382813-5.355469-20.949219 1.429688-18.816406 23.851563-31.9375 53.355469-31.9375-.277344-1.109375-.851562-11.285156-7.339844-24.683594-5.738281-11.859375-12.050781-17.554687-14.183594-18.003906-3.5 0-6.679687-1.707031-8.683593-4.585938-1.984375-2.882812-2.347657-6.550781-1.132813-9.816406.769532-2.023437 19.839844-49.578125 127.339844-49.578125s126.570312 47.554688 127.316406 49.578125c1.238282 3.265625.769532 6.957032-1.214844 9.835938-2.003906 2.878906-5.269531 4.585937-8.769531 4.585937-1.917969.429688-8.253906 6.125-13.992187 17.984375-6.488282 13.398438-7.082032 23.574219-5.933594 25.8125 28.160156-1 50.496094 11.992188 51.882812 30.058594.492188 6.316406 1.152344 14.699219-5.289062 21.699219-7.296875 7.890625-21.207031 11.113281-48 11.113281zm-197.289062-121.34375c14.972656 12.457031 25.640624 39.488281 25.640624 55.1875 0 6.167969-1.386718 11.308594-4.136718 15.296875-3.648438 5.269531-9.410156 8.191406-16.214844 8.191406-20.542969 0-31.765625 8.042969-32.019531 11.480469-.195313 2.496094-.40625 5.097656-.152344 5.863281.234375.152344 4.652344 3.992188 32.171875 3.992188h192c27.519531 0 31.9375-3.839844 32.363281-4.269531.0625-.46875-.128906-3.089844-.257812-4.820313-.339844-4.203125-11.5625-12.246094-32.105469-12.246094-6.804688 0-12.566406-2.921875-16.214844-8.210937-2.730468-3.992188-4.136718-9.132813-4.136718-15.296875 0-15.703125 10.667968-42.753907 25.664062-55.210938-10.558594-10.515625-37.675781-27.945312-101.3125-27.945312-63.53125 0-90.667969 17.363281-101.289062 27.988281zm0 0"/><path d="m224 469.332031c-5.886719 0-10.667969-4.777343-10.667969-10.664062 0-11.242188-13.375-50.625-18.34375-56.621094-3.648437-4.371094-3.457031-11.113281.746094-14.976563 4.203125-3.859374 10.453125-3.964843 14.484375.066407 9.34375 9.34375 24.449219 56.128906 24.449219 71.53125 0 5.886719-4.78125 10.664062-10.667969 10.664062zm0 0"/><path d="m288 469.332031c-5.886719 0-10.667969-4.777343-10.667969-10.664062 0-15.402344 15.105469-62.1875 24.449219-71.554688 4.160156-4.160156 10.921875-4.160156 15.082031 0 4.117188 4.117188 4.160157 10.796875.105469 14.976563-4.988281 6.167968-18.300781 45.375-18.300781 56.578125 0 5.886719-4.78125 10.664062-10.667969 10.664062zm0 0"/></svg>