<svg height="512pt" viewBox="0 0 512 512" width="512pt" xmlns="http://www.w3.org/2000/svg"><path d="m512 256c0 141.386719-114.613281 256-256 256s-256-114.613281-256-256 114.613281-256 256-256 256 114.613281 256 256zm0 0" fill="#ffc107"/><path d="m384 202.667969c0 17.671875-14.328125 32-32 32s-32-14.328125-32-32c0-17.675781 14.328125-32 32-32s32 14.324219 32 32zm0 0" fill="#795548"/><path d="m192 202.667969c0 17.671875-14.328125 32-32 32s-32-14.328125-32-32c0-17.675781 14.328125-32 32-32s32 14.324219 32 32zm0 0" fill="#795548"/><path d="m256 512c-141.164062 0-256-114.835938-256-256s114.835938-256 256-256 256 114.835938 256 256-114.835938 256-256 256zm0-490.667969c-129.386719 0-234.667969 105.28125-234.667969 234.667969s105.28125 234.667969 234.667969 234.667969 234.667969-105.28125 234.667969-234.667969-105.28125-234.667969-234.667969-234.667969zm0 0"/><path d="m160 256c-29.398438 0-53.332031-23.914062-53.332031-53.332031 0-29.421875 23.933593-53.335938 53.332031-53.335938s53.332031 23.914063 53.332031 53.335938c0 29.417969-23.933593 53.332031-53.332031 53.332031zm0-85.332031c-17.644531 0-32 14.355469-32 32 0 17.640625 14.355469 32 32 32s32-14.359375 32-32c0-17.644531-14.355469-32-32-32zm0 0"/><path d="m352 234.667969c-17.644531 0-32-14.359375-32-32 0-17.644531 14.355469-32 32-32s32 14.355469 32 32c0 17.640625-14.355469 32-32 32zm0-42.667969c-5.886719 0-10.667969 4.800781-10.667969 10.667969 0 5.867187 4.78125 10.664062 10.667969 10.664062s10.667969-4.796875 10.667969-10.664062c0-5.867188-4.78125-10.667969-10.667969-10.667969zm0 0"/><path d="m330.667969 362.667969h-149.335938c-5.886719 0-10.664062-4.78125-10.664062-10.667969s4.777343-10.667969 10.664062-10.667969h149.335938c5.886719 0 10.664062 4.78125 10.664062 10.667969s-4.777343 10.667969-10.664062 10.667969zm0 0"/><path d="m394.667969 192h-85.335938c-5.886719 0-10.664062-4.777344-10.664062-10.667969 0-5.886719 4.777343-10.664062 10.664062-10.664062h85.335938c5.886719 0 10.664062 4.777343 10.664062 10.664062 0 5.890625-4.777343 10.667969-10.664062 10.667969zm0 0"/><path d="m202.667969 149.332031c-3.394531 0-6.722657-1.621093-8.789063-4.628906-.449218-.617187-12.097656-16.703125-33.878906-16.703125s-33.769531 16.535156-33.878906 16.703125c-3.328125 4.863281-9.984375 6.101563-14.824219 2.753906-4.863281-3.328125-6.082031-9.984375-2.753906-14.828125.726562-1.066406 18.21875-25.960937 51.457031-25.960937s50.730469 24.894531 51.457031 25.960937c3.328125 4.863282 2.109375 11.5-2.753906 14.828125-1.832031 1.277344-3.945313 1.875-6.035156 1.875zm0 0"/></svg>