<svg height="512pt" viewBox="0 0 512 512" width="512pt" xmlns="http://www.w3.org/2000/svg"><path d="m512 256c0 141.386719-114.613281 256-256 256s-256-114.613281-256-256 114.613281-256 256-256 256 114.613281 256 256zm0 0" fill="#ffc107"/><path d="m192 202.667969c0 17.671875-14.328125 32-32 32s-32-14.328125-32-32c0-17.675781 14.328125-32 32-32s32 14.324219 32 32zm0 0" fill="#795548"/><path d="m384 202.667969c0 17.671875-14.328125 32-32 32s-32-14.328125-32-32c0-17.675781 14.328125-32 32-32s32 14.324219 32 32zm0 0" fill="#795548"/><path d="m410.644531 370.21875c-21.011719-68.332031-83.15625-114.21875-154.644531-114.21875s-133.632812 45.886719-154.644531 114.21875c-.980469 3.222656-.40625 6.742188 1.621093 9.449219 2.003907 2.730469 5.183594 4.332031 8.574219 4.332031h288.898438c3.390625 0 6.570312-1.601562 8.574219-4.332031 2.027343-2.707031 2.601562-6.226563 1.621093-9.449219zm0 0" fill="#f44336"/><path d="m256 512c-141.164062 0-256-114.835938-256-256s114.835938-256 256-256 256 114.835938 256 256-114.835938 256-256 256zm0-490.667969c-129.386719 0-234.667969 105.28125-234.667969 234.667969s105.28125 234.667969 234.667969 234.667969 234.667969-105.28125 234.667969-234.667969-105.28125-234.667969-234.667969-234.667969zm0 0"/><path d="m160 234.667969c-17.644531 0-32-14.359375-32-32 0-17.644531 14.355469-32 32-32s32 14.355469 32 32c0 17.640625-14.355469 32-32 32zm0-42.667969c-5.867188 0-10.667969 4.800781-10.667969 10.667969 0 5.867187 4.800781 10.664062 10.667969 10.664062s10.667969-4.796875 10.667969-10.664062c0-5.867188-4.800781-10.667969-10.667969-10.667969zm0 0"/><path d="m352 234.667969c-17.644531 0-32-14.359375-32-32 0-17.644531 14.355469-32 32-32s32 14.355469 32 32c0 17.640625-14.355469 32-32 32zm0-42.667969c-5.867188 0-10.667969 4.800781-10.667969 10.667969 0 5.867187 4.800781 10.664062 10.667969 10.664062s10.667969-4.796875 10.667969-10.664062c0-5.867188-4.800781-10.667969-10.667969-10.667969zm0 0"/><path d="m400.449219 384h-288.898438c-3.371093 0-6.570312-1.601562-8.574219-4.332031-2.007812-2.707031-2.601562-6.226563-1.601562-9.449219 20.972656-68.332031 83.117188-114.21875 154.625-114.21875s133.652344 45.886719 154.625 114.21875c1 3.222656.40625 6.742188-1.601562 9.449219-2.027344 2.730469-5.203126 4.332031-8.574219 4.332031zm-273.664063-21.332031h258.410156c-21.847656-51.605469-72.085937-85.335938-129.214843-85.335938-57.132813 0-107.328125 33.730469-129.195313 85.335938zm0 0"/><path d="m202.667969 170.667969c-1.132813 0-2.242188-.171875-3.371094-.535157l-64-21.332031c-5.589844-1.878906-8.621094-7.914062-6.761719-13.503906 1.875-5.589844 7.914063-8.578125 13.503906-6.761719l64 21.332032c5.585938 1.875 8.59375 7.914062 6.738282 13.503906-1.492188 4.457031-5.652344 7.296875-10.109375 7.296875zm0 0"/><path d="m309.332031 170.667969c-4.457031 0-8.617187-2.839844-10.132812-7.296875-1.855469-5.589844 1.175781-11.628906 6.742187-13.503906l64-21.332032c5.609375-1.835937 11.625 1.171875 13.503906 6.738282 1.855469 5.589843-1.171874 11.628906-6.742187 13.503906l-64 21.335937c-1.128906.382813-2.238281.554688-3.371094.554688zm0 0"/></svg>