<svg height="512pt" viewBox="0 0 512 512" width="512pt" xmlns="http://www.w3.org/2000/svg"><path d="m512 256c0 141.386719-114.613281 256-256 256s-256-114.613281-256-256 114.613281-256 256-256 256 114.613281 256 256zm0 0" fill="#455a64"/><g fill="#fafafa"><path d="m165.566406 149.3125-5.566406.019531-5.566406-.019531c-15.363282-.171875-30.082032-.257812-39.574219 9.195312-5.441406 5.375-8.191406 13.054688-8.191406 22.824219 0 29.421875 23.914062 53.335938 53.332031 53.335938s53.332031-23.914063 53.332031-53.335938c0-9.769531-2.75-17.449219-8.191406-22.824219-9.492187-9.453124-24.171875-9.386718-39.574219-9.195312zm0 0"/><path d="m398.742188 174.421875c-6.914063-6.273437-16.234376-5.375-25.152344-4.460937-6.785156.664062-15.082032.664062-21.867188 0-8.917968-.914063-18.21875-1.8125-25.152344 4.460937-4.414062 3.988281-6.570312 9.75-6.570312 17.578125 0 23.53125 19.136719 42.667969 42.667969 42.667969s42.664062-19.136719 42.664062-42.667969c0-7.828125-2.152343-13.589844-6.589843-17.578125zm0 0"/><path d="m362.667969 351.765625c-.128907-5.78125-4.867188-10.433594-10.667969-10.433594h-213.332031c-5.890625 0-10.667969 4.78125-10.667969 10.667969 0 24.597656 8.382812 53.332031 32 53.332031 9.28125 0 16.191406-4.414062 21.164062-11.261719.875 1.195313 1.832032 2.304688 2.855469 3.347657 10.136719 10.367187 27.160157 10.367187 37.292969 0 1.171875-1.195313 2.21875-2.472657 3.179688-3.859375 4.714843 6.890625 11.390624 11.773437 20.839843 11.773437 9.453125 0 16.128907-4.882812 20.84375-11.773437.960938 1.363281 2.027344 2.664062 3.179688 3.859375 10.132812 10.367187 27.15625 10.367187 37.289062 0 .960938-.980469 1.855469-2.046875 2.6875-3.136719.832031 1.109375 1.730469 2.175781 2.6875 3.136719 5.058594 5.183593 11.523438 7.914062 18.648438 7.914062s13.589843-2.730469 18.644531-7.914062c13.632812-13.886719 13.417969-42.429688 13.355469-45.652344zm0 0"/></g><path d="m256 512c-141.164062 0-256-114.835938-256-256s114.835938-256 256-256 256 114.835938 256 256-114.835938 256-256 256zm0-490.667969c-129.386719 0-234.667969 105.28125-234.667969 234.667969s105.28125 234.667969 234.667969 234.667969 234.667969-105.28125 234.667969-234.667969-105.28125-234.667969-234.667969-234.667969zm0 0"/><path d="m160 234.667969c-29.417969 0-53.332031-23.914063-53.332031-53.335938 0-9.769531 2.75-17.449219 8.191406-22.824219 9.492187-9.410156 24.128906-9.34375 39.574219-9.195312l5.566406.019531 5.566406-.019531c15.445313-.171875 30.082032-.234375 39.574219 9.195312 5.441406 5.375 8.191406 13.054688 8.191406 22.824219 0 29.421875-23.914062 53.335938-53.332031 53.335938zm-10.476562-64.066407c-8.53125 0-16.957032.386719-19.644532 3.050782-1.539062 1.515625-1.878906 5.015625-1.878906 7.679687 0 17.644531 14.355469 32 32 32s32-14.355469 32-32c0-2.664062-.339844-6.164062-1.878906-7.679687-3.199219-3.175782-14.546875-3.15625-24.382813-3.007813l-5.738281.023438-5.738281-.023438c-1.558594-.019531-3.136719-.042969-4.738281-.042969zm0 0"/><path d="m362.667969 234.667969c-23.53125 0-42.667969-19.136719-42.667969-42.667969 0-7.828125 2.15625-13.589844 6.59375-17.578125 6.910156-6.273437 16.234375-5.375 25.148438-4.460937 6.785156.664062 15.085937.664062 21.867187 0 8.917969-.914063 18.21875-1.8125 25.152344 4.460937 4.417969 3.988281 6.570312 9.75 6.570312 17.578125 0 23.53125-19.132812 42.667969-42.664062 42.667969zm-21.292969-44.035157c-.019531.363282-.042969.832032-.042969 1.367188 0 11.777344 9.558594 21.332031 21.335938 21.332031 11.773437 0 21.332031-9.554687 21.332031-21.332031 0-.535156-.019531-1.003906-.042969-1.367188-2.046875-.039062-5.546875.300782-8.253906.535157-8.042969.832031-18.027344.832031-26.070313 0-2.710937-.257813-6.207031-.554688-8.257812-.535157zm0 0"/><path d="m373.332031 362.667969h-256c-5.886719 0-10.664062-4.78125-10.664062-10.667969s4.777343-10.667969 10.664062-10.667969h256c5.890625 0 10.667969 4.78125 10.667969 10.667969s-4.777344 10.667969-10.667969 10.667969zm0 0"/><path d="m330.667969 405.332031c-7.125 0-13.589844-2.730469-18.648438-7.914062-.957031-.980469-1.855469-2.046875-2.6875-3.136719-.832031 1.109375-1.726562 2.175781-2.6875 3.136719-10.132812 10.367187-27.15625 10.367187-37.289062 0-1.175781-1.195313-2.21875-2.472657-3.179688-3.859375-4.714843 6.890625-11.390625 11.773437-20.84375 11.773437-9.449219 0-16.125-4.882812-20.839843-11.773437-.960938 1.363281-2.027344 2.664062-3.179688 3.859375-10.132812 10.367187-27.15625 10.367187-37.292969 0-1.023437-1.042969-1.980469-2.175781-2.855469-3.347657-4.972656 6.847657-11.882812 11.261719-21.164062 11.261719-23.617188 0-32-28.734375-32-53.332031 0-5.886719 4.777344-10.644531 10.644531-10.667969h.023438c5.867187 0 10.644531 4.78125 10.664062 10.648438.042969 13.054687 4.203125 32.019531 10.667969 32.019531 6.25 0 10.433594-18.21875 10.667969-30.953125 0-.578125 0-1.003906 0-1.28125.125-5.804687 4.882812-10.433594 10.664062-10.433594h.109375c5.84375.066407 10.558594 4.824219 10.558594 10.667969 0 .492188 0 1.023438-.019531 1.515625.0625 9.40625 2.21875 23.828125 7.292969 28.96875 2.410156 2.496094 4.351562 2.496094 6.804687 0 5.269531-5.394531 7.445313-21.246094 7.253906-30.269531-.125-5.847656 4.480469-10.691406 10.304688-10.882813h.363281c5.695312 0 10.410156 4.503907 10.667969 10.21875.679687 15.765625 6.164062 32.449219 10.664062 32.449219 4.546875 0 10.027344-16.660156 10.667969-32.449219.257812-5.714843 4.949219-10.21875 10.667969-10.21875.105469 0 .210937 0 .320312.023438 5.84375.167969 10.453125 5.011719 10.34375 10.859375-.167969 9.34375 1.984375 24.894531 7.277344 30.292968 2.410156 2.496094 4.351563 2.496094 6.804687 0 4.863282-4.972656 7.082032-18.859374 7.253907-28.054687-.023438-1.300781 0-2.21875 0-2.667969.125-5.800781 4.863281-10.453125 10.664062-10.453125 5.804688 0 10.539063 4.652344 10.667969 10.433594 0 .449219.019531 1.324219 0 2.558594.171875 9.410156 2.347656 23.167969 7.273438 28.160156 2.410156 2.496094 4.351562 2.496094 6.804687 0 5.269531-5.394531 7.445313-21.246094 7.253906-30.269531-.125-5.890625 4.566407-10.773438 10.433594-10.902344h.234375c5.78125 0 10.539062 4.628906 10.667969 10.429688.0625 3.203124.277343 31.746093-13.355469 45.65625-5.054688 5.203124-11.519531 7.933593-18.644531 7.933593zm0 0"/><path d="m288 170.667969c-2.730469 0-5.460938-1.046875-7.550781-3.117188l-85.335938-85.332031c-4.160156-4.160156-4.160156-10.921875 0-15.082031 4.160157-4.160157 10.925781-4.160157 15.085938 0l85.332031 85.332031c4.160156 4.160156 4.160156 10.921875 0 15.082031-2.070312 2.070313-4.800781 3.117188-7.53125 3.117188zm0 0"/><path d="m202.667969 106.667969c-2.730469 0-5.460938-1.046875-7.554688-3.117188-4.160156-4.160156-4.160156-10.921875 0-15.082031l21.335938-21.332031c4.160156-4.160157 10.921875-4.160157 15.082031 0 4.160156 4.160156 4.160156 10.921875 0 15.082031l-21.332031 21.332031c-2.070313 2.070313-4.800781 3.117188-7.53125 3.117188zm0 0"/><path d="m224 128c-2.730469 0-5.460938-1.046875-7.550781-3.113281-4.160157-4.160157-4.160157-10.925781 0-15.085938l21.332031-21.332031c4.160156-4.160156 10.921875-4.160156 15.082031 0 4.160157 4.160156 4.160157 10.921875 0 15.082031l-21.332031 21.335938c-2.070312 2.066406-4.800781 3.113281-7.53125 3.113281zm0 0"/><path d="m245.332031 149.332031c-2.730469 0-5.460937-1.042969-7.550781-3.113281-4.160156-4.160156-4.160156-10.921875 0-15.082031l21.332031-21.335938c4.160157-4.15625 10.925781-4.15625 15.085938 0 4.15625 4.160157 4.15625 10.925781 0 15.085938l-21.335938 21.332031c-2.070312 2.070312-4.800781 3.113281-7.53125 3.113281zm0 0"/><path d="m266.667969 170.667969c-2.730469 0-5.460938-1.046875-7.554688-3.117188-4.160156-4.160156-4.160156-10.921875 0-15.082031l21.335938-21.332031c4.160156-4.160157 10.921875-4.160157 15.082031 0 4.160156 4.160156 4.160156 10.921875 0 15.082031l-21.332031 21.332031c-2.070313 2.070313-4.800781 3.117188-7.53125 3.117188zm0 0"/></svg>